<?xml version="1.0" encoding="UTF-8"?>
<svg id="Layer_1" xmlns="http://www.w3.org/2000/svg" viewBox="0 0 21.09 21.08">
  <defs>
    <style>
      .cls-1 {
        fill: #c5a84c;
        fill-rule: evenodd;
      }
    </style>
  </defs>
  <path class="cls-1" d="M20.91,4.58C20.46,1.42,17.97.11,14.94.11c-2.71,0-7.92-.29-10.31.08C1.42.69.11,2.99.11,6.14c0,2.78-.3,7.85.07,10.36.47,3.21,2.86,4.47,5.96,4.47,2.82,0,7.83.29,10.39-.06,3.14-.43,4.44-2.98,4.44-5.97,0-2.75.29-7.89-.06-10.36ZM16.5,10.54c0,3.28-2.67,5.96-5.96,5.96s-5.96-2.67-5.96-5.96,2.67-5.96,5.96-5.96c1.33,0,2.58.43,3.63,1.23l-1.38,1.8c-.65-.5-1.43-.76-2.25-.76-2.03,0-3.69,1.65-3.69,3.69s1.65,3.69,3.69,3.69c1.64,0,3.03-1.07,3.51-2.55h-3.51v-2.27h5.96v1.13Z"/>
</svg>