<?xml version="1.0" encoding="UTF-8"?>
<svg id="Layer_1" xmlns="http://www.w3.org/2000/svg" viewBox="0 0 115.06 13.68">
  <defs>
    <style>
      .cls-1 {
        fill: #c5a84c;
      }
    </style>
  </defs>
  <g>
    <circle class="cls-1" cx="25.41" cy="6.69" r="1.95" transform="translate(-.63 3.15) rotate(-7.02)"/>
    <path class="cls-1" d="M30.6,5.31c.76,0,1.38.62,1.38,1.38s-.62,1.38-1.38,1.38-1.38-.62-1.38-1.38.62-1.38,1.38-1.38Z"/>
    <path class="cls-1" d="M35.6,5.61l76.99,1.07-76.99,1.07c-.58,0-1.06-.44-1.1-1.01,0-.01,0-.03,0-.04-.02-.61.49-1.1,1.1-1.1Z"/>
  </g>
  <g>
    <path class="cls-1" d="M11.8,1.47l.33-.3.34.3c1.81,1.63,5.49,3.83,8.21,4.92l1.11.45-1.11.45c-2.72,1.09-6.4,3.29-8.21,4.92l-.34.3-.33-.3c-1.81-1.63-5.49-3.83-8.21-4.92l-1.11-.45,1.11-.45c2.72-1.09,6.4-3.29,8.21-4.92ZM12.13,11.2c1.74-1.46,4.63-3.23,7.13-4.37-2.5-1.14-5.39-2.9-7.13-4.37-1.74,1.46-4.63,3.23-7.13,4.37,2.5,1.14,5.39,2.9,7.13,4.37Z"/>
    <path class="cls-1" d="M16.31,6.84c-1.39.56-3.25,1.67-4.18,2.51-.93-.83-2.79-1.95-4.18-2.51,1.39-.56,3.25-1.67,4.18-2.51.93.84,2.79,1.95,4.18,2.51Z"/>
  </g>
</svg>