<svg xmlns="http://www.w3.org/2000/svg" xmlns:xlink="http://www.w3.org/1999/xlink" width="176" height="227.748" viewBox="0 0 176 227.748">
  <defs>
    <linearGradient id="linear-gradient" x1="0.747" y1="0.56" x2="-0.304" y2="0.835" gradientUnits="objectBoundingBox">
      <stop offset="0"/>
      <stop offset="1" stop-color="#545454"/>
    </linearGradient>
    <linearGradient id="linear-gradient-8" x1="0.253" y1="0.56" x2="1.304" y2="0.835" xlink:href="#linear-gradient"/>
  </defs>
  <g id="Group_104" data-name="Group 104" transform="translate(3684 1684.88)">
    <g id="Group_104-2" data-name="Group 104" transform="translate(-3673.811 -1684.88)">
      <path id="Path_451" data-name="Path 451" d="M235.134,329.668c-.286.174-.688.279-.84.533-1.318,2.2-2.543,4.447-3.922,6.6-.233.365-1.061.369-1.624.5-.5.116-1.027.155-1.532.268-.261.059-.636.367-.734.287-1.118-.919-1.649.349-2.412.643a9.409,9.409,0,0,0-1.9,1.1,5.7,5.7,0,0,0-1.2,1.082c-1.352,1.677-4.9,1.37-6-.577a12.033,12.033,0,0,0-2.063,1.582c-3.321,3.926-9.657,7.1-13,11a42.677,42.677,0,0,1-3.867,3.7c-.7.638-1.484,1.192-2.242,1.767a.914.914,0,0,1-.476.155c-.928.057-1.888-.01-2.349,1.105-.062.15-.539.127-.825.185-.5-1.371-.738-1.416-2.5-.412-.315-.9-.209-2.473-2.245-1.072.288-.867.461-1.344.6-1.831.215-.737.454-1.473.6-2.225.111-.583-.234-1.312.67-1.581.1-.03.2-.513.11-.637a1.039,1.039,0,0,0-.713-.373,7.138,7.138,0,0,0-1.426.318c.62-1.233,2.827-1.815,3.318-2.766.235-.454,1.948-.4,2.13-.872.278-.72.466-1.475.692-2.215-.888-.2-1.772-.436-2.667-.6-.794-.148-1.6-.247-2.4-.327-1.56-.155-2-1.359-2.51-2.554a19.328,19.328,0,0,0-1.006-1.829l-.456-.049c-.359.67-.763,1.32-1.068,2.014-.392.894-.652,1.848-1.074,2.726a2.375,2.375,0,0,1-1.041,1.226c-1.357.461-1.341,1.485-1.087,2.483a2.339,2.339,0,0,1-.764,2.511,7.04,7.04,0,0,0-1.284,1.65,24.028,24.028,0,0,1-.566,2.647,21.054,21.054,0,0,1-1.242,2.924A7.515,7.515,0,0,1,173,360.5c-.233.247-.718.256-1.089.373-.118-.391-.46-.927-.316-1.146.693-1.06.065-2.641,1.51-3.454.419-.236.75-1.238-.375-1.7-.457-.189-.681-.945-1.145-1.646a23.926,23.926,0,0,1-1.529,2.16c-.461.525-1.024,1.189-1.633,1.3-1.065.2-1.3.568-.956,1.54a4.7,4.7,0,0,1-.083,1.413c-.432-.62-.579-1.043-.864-1.185-.329-.162-1.053-.226-1.137-.074-.753,1.364-2.182.354-3.117.964-.075-.4-.335-.9-.19-1.193.431-.887.171-1.409-.673-1.69-.915-.3-.914.422-1.223,1.005s-1.04.927-1.784,1.538a5.407,5.407,0,0,1,.379.791.879.879,0,0,1,0,.693.744.744,0,0,1-.665.1c-1.148-.4-2.28-.851-3.007-1.127a9.409,9.409,0,0,1,.03-2.283,17.7,17.7,0,0,1,1.56-4.243c2.288-3.763,4.649-7.493,7.2-11.082,1.886-2.657,4.126-5.061,6.176-7.6.853-1.059,1.636-2.176,2.426-3.284s-.1-1.337-.891-1.544c.4-2.143.219-1.861-1.872-3.19-1.971-1.252-2.43.922-3.921,1.17a3.007,3.007,0,0,1,.3-.863c.413-.481.9-.9,1.323-1.373,1.3-1.435,1.96-2.951,1.126-4.955-.365-.879-.11-2-.278-2.981-.723-4.236-1.516-8.459-2.238-12.7-.124-.729.028-1.5-.038-2.247-.108-1.208-.342-2.406-.432-3.615-.171-2.307-1.3-4.547-.194-6.963a4.377,4.377,0,0,0-.086-2.943c-.768-2.216-.144-4.387-.109-6.577.041-2.595.04-5.19.057-7.786a.623.623,0,0,1,0-.128c.434-1.917.89-3.83,1.295-5.753.233-1.109.379-2.236.572-3.354.139-.805.29-1.608.436-2.412l-.338-.25,1.55-.352c-.283,1.559-.51,2.961-.794,4.35-.586,2.853-.035,5.654.287,8.475.191,1.681.078,3.4.366,5.062a7.87,7.87,0,0,0,1.334,2.646c.523.82,1.182,1.553,1.851,2.413.559-.4.908-.034,1.274.747a9.253,9.253,0,0,0,1.524,1.952c.539.619,1.081,1.236,1.617,1.858.187.216.542.476.509.66-.148.834.316,1.239.928,1.588a5.216,5.216,0,0,0,1.72.717c.744,1.056,1.633,1.118,2.877.769,1.328-.373,2.055.762,2.68,1.719,1.017,1.556,1.967,3.155,2.932,4.744.262.43.492.882.711,1.336.306.636.333,1.582,1.472,1.237.086-.026.244.082.327.168,1.221,1.255,2.929,1.569,4.458,2.135.994.367,2.281-.1,3.32.2a4.321,4.321,0,0,0,2.845.155c.307-.114.713-.3.819-.564a4.278,4.278,0,0,1,4.3-2.859c1.692.021,2.606-1.05,3.61-2.088.289-.3.553-.76.9-.84,1.9-.437,2.794-2.026,3.763-3.392a1.933,1.933,0,0,1,1.967-.951,1.39,1.39,0,0,0,.913-.523c.373-.434.572-1.023.968-1.428a22.161,22.161,0,0,1,4.206-3.306,4,4,0,0,0,1.173-1.852c.373-.885.554-1.85.915-2.742.089-.221.548-.3.844-.429,1.262-.547,1.7-1.6,1.131-2.374a6.893,6.893,0,0,0,3.744-4.629c.416-2.082.556-4.219.968-6.3a13.015,13.015,0,0,1,1.125-2.6l.5-.024a18.562,18.562,0,0,1,1.112,2.656,45.993,45.993,0,0,1,1.011,5.132,20.353,20.353,0,0,1,.124,3.873,7.533,7.533,0,0,0,.144,3.451c.4,1.058-.18,2.448-.075,3.67.117,1.364-.277,2.773.592,4.121.364.565.031,1.618-.073,2.438-.116.91-.352,1.8-.5,2.711-.264,1.607-.366,3.254-.788,4.816s.04,2.966,1.493,3.5c.086,2.165.855,2.824,3.1,3.228a9.188,9.188,0,0,1,2.617,1.386c.54.311,1.063.655,1.582,1,1.4.931,2.84,1.816,4.183,2.827a1.274,1.274,0,0,1,.067,2.1c-.607.65-1.135,1.374-1.73,2.036-.463.514-.625,1.17.16,1.237,2.442.21,3.232,1.647,3.154,3.7a13.6,13.6,0,0,0,1.919.269,2.845,2.845,0,0,0,1.32-.343c1.542-.85,2.785-.707,3.6.9.788,1.562,1.693,2.226,3.382,1.62.114-.041.291.093.589.2-1.917,2.385-3.913,4.581-5.567,7.009s-2.981,5.1-4.675,7.581c.255-.626.49-1.262.77-1.877,1.072-2.358,2.178-4.7,3.221-7.071.215-.488.6-1.2-.316-1.457-.765-.218-1.259-.032-1.4.932-.073.516-.574.985-.921,1.446-.745.989-1.514,1.958-2.513,3.244-.11-1.064-.179-1.737-.248-2.409l-.372-.2c-.536.793-1.075,1.584-1.607,2.381-.361.541-.711,1.09-1.067,1.635l-.291-.121c.058.231.244.571.155.677-.977,1.157-.16,2.468-.378,3.642a19.185,19.185,0,0,1-1.529,3.862c-1.62,3.774-3.663,7.4-3.549,11.723a22.956,22.956,0,0,1-.444,4.059,5.188,5.188,0,0,1-.579,1.285l-.349-.086a26.589,26.589,0,0,1,.033-3.857,65.282,65.282,0,0,1,1.353-6.731c.609-2.364,1.43-4.672,2.123-7.016a1.637,1.637,0,0,0-.008-1.135c-.608-1.065-.794-2.7-2.83-2.248,1.71,1.955-.552,3.172-.806,4.948a8.146,8.146,0,0,1-2.413-1.017c-1.149-1.032-1.76.4-2.746.2a4.1,4.1,0,0,1,.123.494c.038.517.27,1.367.064,1.492-.776.472-.949-.331-1.2-.841s-.5-1.054-.788-1.674l1.347-.368c.189-1.449.365-2.8.541-4.157l-.421-.114a51.154,51.154,0,0,0-7.87,17.339c1.059-9.682,6.3-17.656,10.755-25.947Z" transform="translate(-125.118 -216.657)" fill="url(#linear-gradient)"/>
      <path id="Path_452" data-name="Path 452" d="M263.005,156.729c-.888,0-1.715.041-2.536-.011-.919-.058-.839-.538-.356-1.083.444-.5.915-.976,1.393-1.481-1.621-2.082-2.586.276-3.986.346l1.644,1.492-.217.3-1.491-.176-.55-1.661a8.451,8.451,0,0,0,1.184-.662,1.367,1.367,0,0,0,.583-.837c.012-.311-.314-.914-.472-.907-1.251.052-1.228-1.095-1.865-1.852l-1.987,1c0-.283-.158-.793.03-1.06.546-.776.694-1.758.025-2.173-.548-.34-1.561.03-2.359.146a11.489,11.489,0,0,0-1.442.4c.061-.992.1-1.64.147-2.406l1-.311.056-.351-2.129-.723-3.249-.7.044-.444c1.56.15,3-1.163,4.713.089.9.657,2.287.609,3.277,1.185,1.641.954,3.5.6,5.188,1.178,1.76.6,3.687.894,5.267,1.8,1.507.864,3.11.217,4.544.863.1.047.3-.146.469-.2.329-.11.665-.2,1-.3l.119.288-.646.8a19.061,19.061,0,0,1,1.8.736,67.765,67.765,0,0,1,7.846,4.326,12.034,12.034,0,0,1,4.349,7.006,16.659,16.659,0,0,0,.982,2.742,5.719,5.719,0,0,1,.785,2.969c-.072,1.116.725,2.281,1.108,3.435.423,1.271.81,2.554,1.212,3.831l-.314.183-.788-.437-1.038.832c-.937-1.153-1.829-2.266-2.739-3.364-.459-.553-.958-1.074-1.429-1.618a43.615,43.615,0,0,1-2.927-3.459,7.711,7.711,0,0,0-3.538-3.036c-1.092-.43-2.051-1.2-3.136-1.65-2.149-.9-4.353-1.666-6.513-2.54a4.846,4.846,0,0,1-1.082-.87Z" transform="translate(-181.722 -143.113)" fill="url(#linear-gradient)"/>
      <path id="Path_453" data-name="Path 453" d="M256.225,327.727c-.42-1.478-.42-1.478-3.605-1.693l2.956-1.13a2.591,2.591,0,0,0-2.886-.457c-2.525.768-5.077.148-7.6.355-1.054.086-2.147-.135-3.174.051-1.611.293-2.876-.469-4.191-1.094a1.305,1.305,0,0,1-.561-1c0-.251.468-.752.677-.727,2.216.268,3.87-1.385,5.93-1.681a4.191,4.191,0,0,1,2.679.243c1.171.579,2.268,1.138,3.725.111a6.224,6.224,0,0,1,4.787-.9,11.519,11.519,0,0,0,2.616-.161,5.46,5.46,0,0,1,.965.122,1.668,1.668,0,0,1,2.8-.112,4.775,4.775,0,0,0,.552.691c1.222.975,1.4,1.878.132,2.766-2.058,1.443-2.095,3.591-2.311,5.66-.225,2.149-1.222,3.853-3.254,4.465a17.33,17.33,0,0,1-4.416.74c-1.7.053-3.384.922-5.13.115-1.014-.469-2.165-.66-3.137-1.191-.48-.263-.692-1.014-1.013-1.524,1.8,0,3.382-.092,4.946.023a6.379,6.379,0,0,0,4.831-1.92A15.5,15.5,0,0,1,256.225,327.727Z" transform="translate(-175.977 -252.02)" fill="url(#linear-gradient)"/>
      <path id="Path_454" data-name="Path 454" d="M234.736,243.57l-1.156-.3a20.137,20.137,0,0,1,.606,2.47,5.651,5.651,0,0,1-.244,1.545c-.747-.133-1.6.16-2.09-.812a8.975,8.975,0,0,1-.593-5.7c.212-1.255.084-1.51-1.2-1.6-.382-.026-.767-.027-1.15-.02-2.264.039-2.457.241-2.933,2.41-.326,1.484-.763,2.944-1.186,4.405a1.413,1.413,0,0,1-.657.738c.352-2.465,1.456-4.816.807-7.357a1.91,1.91,0,0,0-.245.041c.08,1.963-1.568,2.844-2.647,4.017a7.482,7.482,0,0,1-2.528,1.409c-.212.094-.647-.138-.9-.33a4.067,4.067,0,0,0-3.1-.8c-1.328.166-2.057-.289-2.023-1.7a.471.471,0,0,0-.1-.233,4.019,4.019,0,0,0-.3-.344c-.462.263-1.272.453-1.378.836-.375,1.36-1.445,1.517-2.5,1.8-1.209.323-2.406.69-3.623.976-.3.071-.818.017-.957-.179a2.341,2.341,0,0,1-.408-1.33c0-.154.634-.424.969-.411a5.574,5.574,0,0,1,1.336.4c.863.266,1.585.272,1.922-.81a1.724,1.724,0,0,1,.737-.821c1.338-.824,2.7-1.6,4.06-2.4,1.6-.94,3.39-.615,5.112-.763a14.666,14.666,0,0,0,1.962-.453,6.017,6.017,0,0,1-.41-.711c-.115-.343-.2-.7-.3-1.043a10.882,10.882,0,0,1,1.1.259,7.4,7.4,0,0,0,2.052.735c3.4.033,6.8-.051,10.194-.107a3.033,3.033,0,0,0,2.59-1.687,7.243,7.243,0,0,1,3.152-2.362,15.927,15.927,0,0,1,4.919-1.158,10.363,10.363,0,0,1,3.349.882c.278.084.55.408.788.373,2.137-.317,3.04,1.3,4.192,2.566a1.4,1.4,0,0,0,.8.311c.716.1,1.438.167,2.161.21,2.614.156,2.92.568,2.306,3.2l-1.807.414c-.04-.068-.111-.137-.119-.212-.262-2.627-.806-3.111-3.683-3.156a4.728,4.728,0,0,1-3.693-1.266c-1.577-1.628-6.812-1.11-8.386.929l2.447.193-.077-.341c-2.748.571-5.512,1.079-8.239,1.743-1.27.309-1.474,1.082-.75,2.211.381.6.923,1.086,1.329,1.668a12.254,12.254,0,0,1,.743,1.407Z" transform="translate(-155.582 -198.279)" fill="url(#linear-gradient)"/>
      <path id="Path_455" data-name="Path 455" d="M406.118,445.633c.23-.461.438-.936.7-1.381,1.45-2.507,2.778-5.1,4.411-7.479,1.332-1.944,2.481-4.1,4.6-5.421.838-.523,1.231-.516,1.537.513a5.637,5.637,0,0,0,.99,1.525c.76,1.048,1.578,2.057,2.293,3.134.427.643.422,1.247-.48,1.621-1.476.612-2.88,1.415-4.386,1.926a9.184,9.184,0,0,1-2.677.045c.038-.514.082-1.121.153-2.087-.739.337-1.536.449-1.89.9-1.475,1.9-2.817,3.9-4.2,5.869-.234.331-.45.674-.675,1.012Z" transform="translate(-280.623 -321.424)" fill="url(#linear-gradient)"/>
      <path id="Path_456" data-name="Path 456" d="M148.852,438.678c-.652.792-1.063,1.358-1.546,1.854a7.115,7.115,0,0,1-1.078.769c-.163-.494-.572-1.07-.44-1.465a20.791,20.791,0,0,1,1.348-2.7c.148-.292.428-.672.343-.9-.476-1.278.522-1.708,1.264-2.163a51.567,51.567,0,0,1,4.673-2.564,4.458,4.458,0,0,1,2.142-.359c1.3.088,2.589.354,4.172.589a8.992,8.992,0,0,1-.726.828c-2.1,1.794-4.194,3.59-6.313,5.358-.734.612-1.552,1.123-2.3,1.724C149.525,440.35,149.12,439.962,148.852,438.678Z" transform="translate(-119.37 -321.503)" fill="url(#linear-gradient)"/>
      <path id="Path_457" data-name="Path 457" d="M78.256,494.449c-1.311-1.992-1.237-2.493.032-4.271.65-.911,1.6-3.829,2.183-4.8,1.02-1.684,2.163-3.293,3.208-4.962a6.9,6.9,0,0,0,.421-1.309c.289-.793.6-1.577.907-2.365l.6.144a3.391,3.391,0,0,1-.117,1.278,5.758,5.758,0,0,0-.348,4.342c.209.834.7,1.581.107,2.545-.187.3.467,1.123.5,1.856-.484-.743-.937-1.51-1.466-2.219a5.659,5.659,0,0,0-.976-.834c-.12.491-.5,1.265-.32,1.427,1.277,1.162.736,3.253,2.256,4.275a1.088,1.088,0,0,1-.01,1.032,2.062,2.062,0,0,0-.859,2.229c.034.179-.547.7-.762.662-.847-.171-2.356,1.325-3.14.961C79.308,493.9,79.331,493.855,78.256,494.449Z" transform="translate(-77.303 -349.752)" fill="url(#linear-gradient)"/>
      <path id="Path_482" data-name="Path 482" d="M84.795,494.449c1.311-1.992,1.237-2.493-.032-4.271-.65-.911-1.6-3.454-2.183-4.422-1.02-1.684-7.693-9.272-8.738-10.941a6.9,6.9,0,0,1-.421-1.309c-.289-.793-.6-1.577-.907-2.365l-.6.144a3.391,3.391,0,0,0,.117,1.278c.767,1.413-.476,2.051-.848,3.535-.209.834-.7,1.581-.107,2.545.187.3,6.259,7.535,6.23,8.268.484-.743-4.594-7.114-4.064-7.823a5.659,5.659,0,0,1,.976-.834c.12.491.5,1.265.32,1.427-1.277,1.162,4.794,8.857,3.274,9.879a1.088,1.088,0,0,0,.01,1.032,2.062,2.062,0,0,1,.859,2.229c-.034.179.547.7.762.662.847-.171,2.356,1.325,3.14.961C83.743,493.9,83.72,493.855,84.795,494.449Z" transform="translate(69.876 -355.579)" fill="url(#linear-gradient-8)"/>
      <path id="Path_458" data-name="Path 458" d="M250.808,294.038a3.172,3.172,0,0,1,3.99.206,2.282,2.282,0,0,0,2.467.486c.407-.172.963.013,1.372-.156a4.413,4.413,0,0,0,1.95-1.137c.639-.909,1.146-1.577,2.325-.924a1.755,1.755,0,0,0,.623.125c2.476.31,2.909-.1,2.632-2.93,1.045,1.786,2.513,2.934,2.362,4.927-.045.593-.118.951-.864,1.145a5.161,5.161,0,0,0-1.838,1.278,3.777,3.777,0,0,1-3.142,1.079c-1.006-.142-2.02-.237-3.021-.414-1.869-.33-3.264-1.539-4.745-2.6-.857-.615-1.741-1.215-2.8-.165-.179.177-.965-.257-1.47-.408Z" transform="translate(-184.331 -233.908)" fill="url(#linear-gradient)"/>
      <path id="Path_459" data-name="Path 459" d="M305.1,251.492c-.106-.465-.2-.871-.291-1.277a4.039,4.039,0,0,1-1.028.57c-.848.184-1.716.278-2.578.383-1.076.129-1.721-.232-1.652-1.452.012-.208-.229-.43-.449-.814a15.188,15.188,0,0,1,7.275-1.284l-.011-.448-2.38-.549a3.332,3.332,0,0,1,3.653.345,11.881,11.881,0,0,1,1.942,2.709l1.534-.686a9.046,9.046,0,0,1,.215,2.057,1.519,1.519,0,0,1-1.855,1.341C307.976,252.183,306.5,251.789,305.1,251.492Z" transform="translate(-214.341 -206.986)" fill="url(#linear-gradient)"/>
      <path id="Path_460" data-name="Path 460" d="M118.377,450.608c.171-.88.266-1.581.458-2.255.072-.251.368-.438.842-.968,0,1.257.285,2.291-.051,3.05-1.2,2.714-2.615,5.334-3.974,8.041-.052-.029-.378-.1-.457-.274-.682-1.53-1.339-3.073-1.948-4.634-.072-.185.123-.565.3-.744.869-.861,1.776-1.684,2.668-2.522C117.131,449.445,117.544,449.474,118.377,450.608Z" transform="translate(-99.221 -331.567)" fill="url(#linear-gradient)"/>
      <path id="Path_481" data-name="Path 481" d="M114.644,450.608c-.171-.88-.266-1.581-.458-2.255-.072-.251-.368-.438-.842-.968,0,1.257-.285,2.291.051,3.05,1.2,2.714,2.615,5.334,3.974,8.041.052-.029.378-.1.457-.274.682-1.53,1.339-3.073,1.948-4.634.072-.185-.123-.565-.3-.744-.869-.861-1.776-1.684-2.668-2.522C115.891,449.445,115.477,449.474,114.644,450.608Z" transform="translate(21.823 -337.394)" fill="url(#linear-gradient-8)"/>
      <path id="Path_461" data-name="Path 461" d="M363.724,272.854a10.6,10.6,0,0,1-.557-1.589c-.346-1.867-.673-3.74-.923-5.622a3,3,0,0,1,.231-1.791c.247-.422.92-.594,1.406-.876a4.71,4.71,0,0,1,.625,1.234C365.072,267.5,364.874,270.654,363.724,272.854Z" transform="translate(-253.426 -217.351)" fill="url(#linear-gradient)"/>
      <path id="Path_462" data-name="Path 462" d="M186.541,241.6a1.734,1.734,0,0,1,.119,2.684c-.993-1.356-1.74-2.638-1.257-4.319a52.568,52.568,0,0,1,1.929-5.967C187.037,236.513,188.761,239.187,186.541,241.6Z" transform="translate(-143.828 -199.402)" fill="url(#linear-gradient)"/>
      <path id="Path_463" data-name="Path 463" d="M196.581,254.993c-1.267-.318-1.173-.992-.972-1.689.24-.831.192-1.385-.9-1.505a1.332,1.332,0,0,1-.829-1.018c.048-.686.245-1.783.667-1.941a11.14,11.14,0,0,1,3.842-.456c-2.546.275-2.121,2.056-2.056,3.615C196.376,252.946,196.488,253.89,196.581,254.993Z" transform="translate(-149.174 -208.314)" fill="url(#linear-gradient)"/>
      <path id="Path_464" data-name="Path 464" d="M231.377,240.331l-7.34-1.653c.163-.259.248-.546.368-.561a27.648,27.648,0,0,1,4.611-.461c.789.032,2.085.2,1.819,1.724C230.794,239.62,231.137,239.928,231.377,240.331Z" transform="translate(-167.85 -201.664)" fill="url(#linear-gradient)"/>
      <path id="Path_465" data-name="Path 465" d="M362.431,509.423c1.315,1.65.477,3.227-.255,4.739C361.224,513.213,361.269,512.071,362.431,509.423Z" transform="translate(-252.993 -369.991)" fill="url(#linear-gradient)"/>
      <path id="Path_466" data-name="Path 466" d="M140.837,462.763c1.725-.756,2.026-3.32,4.355-3.3C144.661,460.838,142.46,462.85,140.837,462.763Z" transform="translate(-116.319 -339.045)" fill="url(#linear-gradient)"/>
      <path id="Path_467" data-name="Path 467" d="M280.959,284.7a3.632,3.632,0,0,1-.018-3.408C281.9,282.236,281.922,283.38,280.959,284.7Z" transform="translate(-202.834 -228.696)" fill="url(#linear-gradient)"/>
      <path id="Path_468" data-name="Path 468" d="M250.846,149.809l-1.814.73.436-1.065L247.8,149.2l.083-.438c1.131-.408,2.025.283,2.975.712Z" transform="translate(-182.569 -146.536)" fill="url(#linear-gradient)"/>
      <path id="Path_469" data-name="Path 469" d="M354.7,257.411a20.434,20.434,0,0,1,1.814,1.075c.121.086.082.555-.037.756a.7.7,0,0,1-.663.085c-.608-.332-1.176-.739-1.759-1.118Z" transform="translate(-248.379 -213.905)" fill="url(#linear-gradient)"/>
      <path id="Path_470" data-name="Path 470" d="M99.76,485.336l-1.516-2.9.462-.225A2.811,2.811,0,0,1,99.76,485.336Z" transform="translate(-89.939 -353.138)" fill="url(#linear-gradient)"/>
      <path id="Path_471" data-name="Path 471" d="M177.518,269.248l-2.429,1.2c.311-.725.4-1.468.787-1.689.413-.236,1.107.021,1.678.062Z" transform="translate(-137.534 -220.873)" fill="url(#linear-gradient)"/>
      <path id="Path_472" data-name="Path 472" d="M254.515,345.145c-.138-.6-.552-1.315.441-1.6.286-.081.689.243,1.038.382L255,345.413Z" transform="translate(-186.601 -267.246)" fill="url(#linear-gradient)"/>
      <path id="Path_474" data-name="Path 474" d="M138.873,446.113l3.166-2.63.338.414-3.215,2.548Z" transform="translate(-115.103 -329.15)" fill="url(#linear-gradient)"/>
      <path id="Path_475" data-name="Path 475" d="M351.5,232.687l-1.169-2.126.376-.224,1.223,2.1Z" transform="translate(-246.074 -197.136)" fill="url(#linear-gradient)"/>
      <path id="Path_476" data-name="Path 476" d="M146,439.11l-2.18.123C144.424,438.172,144.835,438.136,146,439.11Z" transform="translate(-118.168 -326.006)" fill="url(#linear-gradient)"/>
    </g>
    <g id="Group_105" data-name="Group 105" transform="translate(-3684 -1540.13)">
      <path id="Path_477" data-name="Path 477" d="M1352.211,5736.6h-7.432v-45.132a3.5,3.5,0,0,1,2.935-4.106,9.682,9.682,0,0,0,4.5-2.929V5736.6Zm-56.913-18.3v-6.03a5.141,5.141,0,0,1,.561-2.671,4.676,4.676,0,0,1,2.242-1.436,9.224,9.224,0,0,0,4.294-2.929v19.95h-.013v8.16a3.127,3.127,0,0,1-3.26,3.259h-15.115v-4.956C1284.006,5724.507,1287.811,5720.035,1295.3,5718.294Zm29.187-2.7v-3.327a3.5,3.5,0,0,1,2.935-4.106,9.675,9.675,0,0,0,4.5-2.929v12.922h.573c3.584,0,6.194,1.109,7.955,3.195a9.669,9.669,0,0,1,1.951,6.06v5.932a3.126,3.126,0,0,1-3.26,3.259H1321.87v-7.107h13.1v-1.3c0-1.959-.912-2.934-2.808-2.934h-7.686v-9.675Zm-103.318,18.325h-.041v-.366l-.007-.212v-27.144l.007.008v-1.062h7.432v24.351h11.389a16.741,16.741,0,0,1-3-3.972,2.91,2.91,0,0,0-2.6-1.764,3.827,3.827,0,0,0-2.544,1.374v-7.693a8.422,8.422,0,0,1,4.172-.784,7.137,7.137,0,0,1,4.369,1.373,13.911,13.911,0,0,1,3.19,4.036,41.241,41.241,0,0,0,3.457,5.409,8.655,8.655,0,0,0,2.735,2.021v3.847a3.183,3.183,0,0,1-.985,2.346,3.147,3.147,0,0,1-2.273.913h-22.09a3.085,3.085,0,0,1-3.21-2.681Zm-.041-38.559v-3.892a3.5,3.5,0,0,1,2.935-4.106,9.683,9.683,0,0,0,4.5-2.929v10.928h-7.432Zm99.293,41.24h-7.432v-31.457h7.432Zm-7.432-41.24v-3.892a3.5,3.5,0,0,1,2.935-4.106,9.682,9.682,0,0,0,4.5-2.929v10.928h-7.432Zm-129.136,41.24h-1.958a3.139,3.139,0,0,1-3.261-3.259v-48.784a9.685,9.685,0,0,0,4.5,2.929,4.866,4.866,0,0,1,2.347,1.436,4.951,4.951,0,0,1,.587,2.67v37.9h12.966v-5.8a4.559,4.559,0,0,1,.587-2.609,4.409,4.409,0,0,1,2.348-1.5,10.781,10.781,0,0,0,4.5-2.933v12.837h4.309v-5.8a4.5,4.5,0,0,1,.588-2.609,4.379,4.379,0,0,1,2.347-1.5,10.777,10.777,0,0,0,4.49-2.934v16.685a3.125,3.125,0,0,1-3.261,3.26h-31.085Zm26.974,7.162a3.779,3.779,0,0,1-3.839,3.847,3.662,3.662,0,0,1-2.671-1.11,3.772,3.772,0,0,1,0-5.472,3.678,3.678,0,0,1,2.671-1.1,3.771,3.771,0,0,1,3.839,3.839Zm-8.156,0a3.795,3.795,0,0,1-3.847,3.847,3.672,3.672,0,0,1-2.674-1.11,3.778,3.778,0,0,1,0-5.472,3.689,3.689,0,0,1,2.674-1.1,3.786,3.786,0,0,1,3.847,3.839Zm15.659-33.421a3.691,3.691,0,0,1-1.109,2.667,3.777,3.777,0,0,1-5.473,0,3.694,3.694,0,0,1-1.109-2.667,3.846,3.846,0,1,1,7.691,0Zm51.91,29.838c0,4.956-3.124,7.43-9.447,7.43a10.7,10.7,0,0,1-6.121-1.76,6.53,6.53,0,0,1-3-5.67h11.468V5736.6h-11.277v-6.455c0-12.018,11.3-7.04,11.3-17.878a5.148,5.148,0,0,1,.561-2.671,4.679,4.679,0,0,1,2.243-1.436,9.424,9.424,0,0,0,2.932-1.578,4.108,4.108,0,0,1,1.339-1.407v.085l.023-.029v19.951h-.023Zm-7.1-10.686v-4.821c-2.608.459-3.972,2.023-4.17,4.821Zm19.467,12.381a4.4,4.4,0,0,1-1.562,3.452,5.14,5.14,0,0,1-3.649,1.435,6.139,6.139,0,0,1-4.234-1.365,4.475,4.475,0,0,1-1.564-3.522v-2.538h3.586V5712.18a4.487,4.487,0,0,1,.587-2.6,4.4,4.4,0,0,1,2.348-1.5,10.744,10.744,0,0,0,4.488-2.935v36.729Zm12.67-12.381v-4.821c-2.6.459-3.972,2.023-4.165,4.821Zm16.191,12.381a4.42,4.42,0,0,1-1.564,3.452,5.16,5.16,0,0,1-3.647,1.435,6.124,6.124,0,0,1-4.235-1.365,4.454,4.454,0,0,1-1.562-3.522v-2.538h3.576v-27.2a4.57,4.57,0,0,1,.586-2.6,4.456,4.456,0,0,1,2.348-1.5,10.826,10.826,0,0,0,4.5-2.934v36.77Z" transform="translate(-1176.21 -5684.43)" fill="#c5a84c"/>
      <path id="Path_478" data-name="Path 478" d="M1579.467,5703.938H1510.5a3.127,3.127,0,0,1-3.26-3.259v-6.321c0-1.174.192-4.982.587-5.569a4.806,4.806,0,0,1,2.34-1.435,9.691,9.691,0,0,0,4.5-2.935v12.412h139.508v-12.412a9.692,9.692,0,0,0,4.5,2.935,4.8,4.8,0,0,1,2.34,1.435c.394.587.587,4.4.587,5.569v6.321a3.127,3.127,0,0,1-3.26,3.259h-78.87Zm13.036-15.677a3.745,3.745,0,0,1-1.166,2.734,3.69,3.69,0,0,1-2.673,1.112,3.794,3.794,0,0,1-3.847-3.846,3.663,3.663,0,0,1,1.11-2.667,3.728,3.728,0,0,1,2.737-1.175,4.007,4.007,0,0,1,3.839,3.842Zm-8.476,0a3.793,3.793,0,0,1-3.846,3.846,3.659,3.659,0,0,1-2.671-1.112,3.721,3.721,0,0,1-1.174-2.734,4.023,4.023,0,0,1,3.846-3.842,3.749,3.749,0,0,1,2.737,1.175,3.683,3.683,0,0,1,1.109,2.667Z" transform="translate(-1495.25 -5684.419)" fill="#373435"/>
      <path id="Path_479" data-name="Path 479" d="M-102.695-4.212V-3.9h-6.432v-.311h.408a1.811,1.811,0,0,0,.862-.177.784.784,0,0,0,.363-.4,3.225,3.225,0,0,0,.1-1.06v-7.5a3.489,3.489,0,0,0-.1-1.094.874.874,0,0,0-.4-.383,1.736,1.736,0,0,0-.821-.164h-.408v-.311h6.432V-15h-.408a1.811,1.811,0,0,0-.862.177.826.826,0,0,0-.372.4,3.225,3.225,0,0,0-.1,1.06v7.5a3.345,3.345,0,0,0,.1,1.094.9.9,0,0,0,.408.383,1.736,1.736,0,0,0,.821.164Zm.671.311v-.311h.408a1.748,1.748,0,0,0,.821-.156.985.985,0,0,0,.422-.425,3.737,3.737,0,0,0,.082-1.06v-7.5a3.489,3.489,0,0,0-.1-1.094.874.874,0,0,0-.4-.383,1.736,1.736,0,0,0-.821-.164h-.408v-.311h5.507a9.432,9.432,0,0,1,3.547.555,5.132,5.132,0,0,1,2.49,2.061,5.838,5.838,0,0,1,.848,3.121,5.767,5.767,0,0,1-.417,2.217,5.035,5.035,0,0,1-1.08,1.674,5.274,5.274,0,0,1-1.529,1.06A8.634,8.634,0,0,1-94.775-4a10.727,10.727,0,0,1-1.742.1Zm4.69-10.759v8.9a2.915,2.915,0,0,0,.073.866.5.5,0,0,0,.245.244,1.583,1.583,0,0,0,.708.126,2.839,2.839,0,0,0,2.313-.959A6.17,6.17,0,0,0-92.906-9.5a7.105,7.105,0,0,0-.744-3.508,3.072,3.072,0,0,0-1.515-1.4A6.308,6.308,0,0,0-97.333-14.66Zm16.211,7.512h-4.345l-.517,1.11a2.327,2.327,0,0,0-.254.917.751.751,0,0,0,.417.707,3.752,3.752,0,0,0,1.207.2V-3.9h-4.091v-.311a1.883,1.883,0,0,0,1.089-.509,6.667,6.667,0,0,0,1.052-1.72l4.4-9.1h.172l4.436,9.354a5.628,5.628,0,0,0,1.043,1.674,1.49,1.49,0,0,0,.871.3V-3.9h-5.951v-.311h.245A1.986,1.986,0,0,0-80.342-4.4a.439.439,0,0,0,.2-.387.963.963,0,0,0-.054-.311q-.018-.076-.272-.631Zm-.308-.623L-83.263-11.7-85.15-7.77ZM-70.5-9.1v3.2a3.286,3.286,0,0,0,.122,1.165.869.869,0,0,0,.431.383,3.112,3.112,0,0,0,1.152.143V-3.9h-6.3v-.311a3.026,3.026,0,0,0,1.157-.147.9.9,0,0,0,.426-.383A3.246,3.246,0,0,0-73.384-5.9v-7.4a3.286,3.286,0,0,0-.122-1.165.869.869,0,0,0-.431-.383A3.112,3.112,0,0,0-75.089-15v-.311h5.715a13.414,13.414,0,0,1,3.266.286,3.312,3.312,0,0,1,1.687,1.056,2.7,2.7,0,0,1,.653,1.8,2.61,2.61,0,0,1-.98,2.086,4.185,4.185,0,0,1-1.751.782l2.957,3.861a5.966,5.966,0,0,0,.826.934,1.613,1.613,0,0,0,.862.286V-3.9h-3.874l-3.964-5.2Zm0-5.594v5h.517A6.206,6.206,0,0,0-68.1-9.911a1.85,1.85,0,0,0,.984-.774,2.668,2.668,0,0,0,.358-1.46,2.539,2.539,0,0,0-.658-1.926,3.012,3.012,0,0,0-2.118-.623Zm16.211,7.546h-4.345l-.517,1.11a2.327,2.327,0,0,0-.254.917.751.751,0,0,0,.417.707,3.752,3.752,0,0,0,1.207.2V-3.9h-4.091v-.311a1.883,1.883,0,0,0,1.089-.509,6.667,6.667,0,0,0,1.052-1.72l4.4-9.1h.172l4.436,9.354A5.628,5.628,0,0,0-49.68-4.515a1.49,1.49,0,0,0,.871.3V-3.9H-54.76v-.311h.245A1.986,1.986,0,0,0-53.508-4.4a.439.439,0,0,0,.2-.387.963.963,0,0,0-.054-.311q-.018-.076-.272-.631ZM-54.6-7.77-56.429-11.7-58.316-7.77ZM-40.045-9.1v3.2a3.286,3.286,0,0,0,.122,1.165.869.869,0,0,0,.431.383,3.112,3.112,0,0,0,1.152.143V-3.9h-6.3v-.311a3.026,3.026,0,0,0,1.157-.147.9.9,0,0,0,.426-.383A3.246,3.246,0,0,0-42.93-5.9v-7.4a3.286,3.286,0,0,0-.122-1.165.869.869,0,0,0-.431-.383A3.112,3.112,0,0,0-44.636-15v-.311h5.715a13.414,13.414,0,0,1,3.266.286,3.312,3.312,0,0,1,1.687,1.056,2.7,2.7,0,0,1,.653,1.8,2.61,2.61,0,0,1-.98,2.086,4.185,4.185,0,0,1-1.751.782l2.957,3.861a5.965,5.965,0,0,0,.826.934,1.613,1.613,0,0,0,.862.286V-3.9h-3.874l-3.964-5.2Zm0-5.594v5h.517a6.206,6.206,0,0,0,1.887-.215,1.85,1.85,0,0,0,.984-.774,2.668,2.668,0,0,0,.358-1.46,2.539,2.539,0,0,0-.658-1.926,3.012,3.012,0,0,0-2.118-.623Zm15.658-.774a6.429,6.429,0,0,1,4.776,1.59,5.511,5.511,0,0,1,1.837,4.231,5.8,5.8,0,0,1-1.37,3.819A6.287,6.287,0,0,1-24.27-3.64,6.44,6.44,0,0,1-29.4-5.726a5.767,5.767,0,0,1-1.433-3.912,5.487,5.487,0,0,1,1.864-4.236A6.2,6.2,0,0,1-24.388-15.467Zm.109.538a2.785,2.785,0,0,0-2.567,1.6,8,8,0,0,0-.717,3.769,6.906,6.906,0,0,0,1.107,4.315,2.6,2.6,0,0,0,2.159.976,2.737,2.737,0,0,0,1.56-.421,3.459,3.459,0,0,0,1.243-1.72,8.914,8.914,0,0,0,.445-3.083,9.551,9.551,0,0,0-.454-3.386,3.3,3.3,0,0,0-1.157-1.586A2.878,2.878,0,0,0-24.279-14.929Zm12.247,5.544v3.533a3.345,3.345,0,0,0,.1,1.094.9.9,0,0,0,.408.383,1.736,1.736,0,0,0,.821.164h.408V-3.9h-6.432v-.311h.408a1.811,1.811,0,0,0,.862-.177.784.784,0,0,0,.363-.4,3.225,3.225,0,0,0,.1-1.06v-7.5a3.489,3.489,0,0,0-.1-1.094.874.874,0,0,0-.4-.383A1.736,1.736,0,0,0-16.314-15h-.408v-.311h6.432V-15H-10.7a1.811,1.811,0,0,0-.862.177.826.826,0,0,0-.372.4,3.225,3.225,0,0,0-.1,1.06v3.23h4.345v-3.23a3.489,3.489,0,0,0-.1-1.094.872.872,0,0,0-.408-.383A1.765,1.765,0,0,0-9.02-15h-.4v-.311H-3V-15h-.4a1.778,1.778,0,0,0-.862.177.826.826,0,0,0-.372.4,3.225,3.225,0,0,0-.1,1.06v7.5a3.489,3.489,0,0,0,.1,1.094.872.872,0,0,0,.408.383,1.765,1.765,0,0,0,.826.164H-3V-3.9H-9.419v-.311h.4a1.778,1.778,0,0,0,.862-.177.826.826,0,0,0,.372-.4,3.225,3.225,0,0,0,.1-1.06V-9.385Zm17.1,2.238H.723L.206-6.037a2.327,2.327,0,0,0-.254.917.751.751,0,0,0,.417.707,3.752,3.752,0,0,0,1.207.2V-3.9H-2.516v-.311a1.883,1.883,0,0,0,1.089-.509A6.667,6.667,0,0,0-.375-6.441l4.4-9.1H4.2L8.633-6.189A5.628,5.628,0,0,0,9.677-4.515a1.49,1.49,0,0,0,.871.3V-3.9H4.6v-.311h.245A1.986,1.986,0,0,0,5.848-4.4a.439.439,0,0,0,.2-.387.963.963,0,0,0-.054-.311q-.018-.076-.272-.631ZM4.76-7.77,2.927-11.7,1.04-7.77Zm10.623-7.537,6.069,7.075v-4.9a2.186,2.186,0,0,0-.318-1.388A1.835,1.835,0,0,0,19.674-15v-.311h4.064V-15a3.292,3.292,0,0,0-1.048.24.984.984,0,0,0-.417.479,3.05,3.05,0,0,0-.15,1.14v9.5h-.308l-8.319-9.5v7.251a1.536,1.536,0,0,0,.485,1.329,1.87,1.87,0,0,0,1.111.345h.29V-3.9H11.019v-.311A2.08,2.08,0,0,0,12.434-4.6a1.722,1.722,0,0,0,.4-1.287v-8.05l-.263-.3a2.336,2.336,0,0,0-.689-.6,2.215,2.215,0,0,0-.862-.16v-.311Zm15.594,11.1V-3.9H24.545v-.311h.408a1.811,1.811,0,0,0,.862-.177.784.784,0,0,0,.363-.4,3.225,3.225,0,0,0,.1-1.06v-7.5a3.489,3.489,0,0,0-.1-1.094.874.874,0,0,0-.4-.383A1.736,1.736,0,0,0,24.953-15h-.408v-.311h6.432V-15h-.408a1.811,1.811,0,0,0-.862.177.826.826,0,0,0-.372.4,3.225,3.225,0,0,0-.1,1.06v7.5a3.345,3.345,0,0,0,.1,1.094.9.9,0,0,0,.408.383,1.736,1.736,0,0,0,.821.164Zm13.635-11.1V-15a1.9,1.9,0,0,0-.934.328,8.782,8.782,0,0,0-1.433,1.926l-2.667,4.13v2.759a3.486,3.486,0,0,0,.1,1.1.886.886,0,0,0,.395.379,1.613,1.613,0,0,0,.785.164h.689V-3.9h-6.9v-.311h.644a1.778,1.778,0,0,0,.862-.177.826.826,0,0,0,.372-.4,3.225,3.225,0,0,0,.1-1.06V-8.14l-2.894-4.887a7.2,7.2,0,0,0-1.216-1.7A1.614,1.614,0,0,0,31.567-15v-.311h5.9V-15H37.2a1.42,1.42,0,0,0-.748.143.389.389,0,0,0-.213.3,4.876,4.876,0,0,0,.726,1.523l2.223,3.777L41.4-12.691a4.4,4.4,0,0,0,.826-1.674.442.442,0,0,0-.236-.379A2.378,2.378,0,0,0,40.856-15v-.311Zm6.232,8.16H46.5l-.517,1.11a2.327,2.327,0,0,0-.254.917.751.751,0,0,0,.417.707,3.752,3.752,0,0,0,1.207.2V-3.9H43.26v-.311a1.883,1.883,0,0,0,1.089-.509A6.667,6.667,0,0,0,45.4-6.441l4.4-9.1h.172l4.436,9.354a5.628,5.628,0,0,0,1.043,1.674,1.49,1.49,0,0,0,.871.3V-3.9H50.372v-.311h.245A1.986,1.986,0,0,0,51.624-4.4a.439.439,0,0,0,.2-.387.963.963,0,0,0-.054-.311q-.018-.076-.272-.631Zm-.308-.623L48.7-11.7,46.816-7.77Zm16.338-7.537v3.087h-.327a4.676,4.676,0,0,0-.644-1.535,2.447,2.447,0,0,0-.971-.744,3.332,3.332,0,0,0-1.207-.151H62.81v8.8a3.345,3.345,0,0,0,.1,1.094.9.9,0,0,0,.408.383,1.759,1.759,0,0,0,.83.164h.408V-3.9H58.12v-.311h.408a1.811,1.811,0,0,0,.862-.177.826.826,0,0,0,.372-.4,3.225,3.225,0,0,0,.1-1.06v-8.8h-.889a2.726,2.726,0,0,0-1.805.488,3.141,3.141,0,0,0-1,1.943h-.345v-3.087Z" transform="translate(109.126 86.638)" fill="#373435"/>
    </g>
  </g>
</svg>
