<?xml version="1.0" encoding="UTF-8"?>
<svg id="Layer_1" xmlns="http://www.w3.org/2000/svg" xmlns:xlink="http://www.w3.org/1999/xlink" viewBox="0 0 176 227.75">
  <defs>
    <style>
      .cls-1 {
        fill: url(#linear-gradient-15);
      }

      .cls-2 {
        fill: url(#linear-gradient-13);
      }

      .cls-3 {
        fill: url(#linear-gradient-2);
      }

      .cls-4 {
        fill: url(#linear-gradient-25);
      }

      .cls-5 {
        fill: url(#linear-gradient-10);
      }

      .cls-6 {
        fill: url(#linear-gradient-12);
      }

      .cls-7 {
        fill: url(#linear-gradient-27);
      }

      .cls-8 {
        fill: url(#linear-gradient-26);
      }

      .cls-9 {
        fill: url(#linear-gradient-4);
      }

      .cls-10 {
        fill: url(#linear-gradient-3);
      }

      .cls-11 {
        fill: url(#linear-gradient-5);
      }

      .cls-12 {
        fill: url(#linear-gradient-22);
      }

      .cls-13 {
        fill: url(#linear-gradient-24);
      }

      .cls-14 {
        fill: url(#linear-gradient-8);
      }

      .cls-15 {
        fill: url(#linear-gradient-14);
      }

      .cls-16 {
        fill: url(#linear-gradient-20);
      }

      .cls-17 {
        fill: url(#linear-gradient-17);
      }

      .cls-18 {
        fill: url(#linear-gradient-7);
      }

      .cls-19 {
        fill: url(#linear-gradient-9);
      }

      .cls-20 {
        fill: #c5a84c;
      }

      .cls-21 {
        fill: url(#linear-gradient-11);
      }

      .cls-22 {
        fill: url(#linear-gradient-19);
      }

      .cls-23 {
        fill: url(#linear-gradient-6);
      }

      .cls-24 {
        fill: url(#linear-gradient-21);
      }

      .cls-25 {
        fill: url(#linear-gradient-16);
      }

      .cls-26 {
        fill: url(#linear-gradient);
      }

      .cls-27 {
        fill: url(#linear-gradient-23);
      }

      .cls-28 {
        fill: #373435;
      }

      .cls-29 {
        fill: url(#linear-gradient-18);
      }
    </style>
    <linearGradient id="linear-gradient" x1="-861.97" y1="650.27" x2="-863.02" y2="650" gradientTransform="translate(90429.31 64477.65) scale(104.78 -99.02)" gradientUnits="userSpaceOnUse">
      <stop offset="0" stop-color="#000"/>
      <stop offset="1" stop-color="#545454"/>
    </linearGradient>
    <linearGradient id="linear-gradient-2" x1="-849.57" y1="641.18" x2="-850.62" y2="640.91" gradientTransform="translate(35835.52 20393.03) scale(42.06 -31.78)" gradientUnits="userSpaceOnUse">
      <stop offset="0" stop-color="#000"/>
      <stop offset="1" stop-color="#545454"/>
    </linearGradient>
    <linearGradient id="linear-gradient-3" x1="-836.43" y1="627.1" x2="-837.49" y2="626.83" gradientTransform="translate(21614.96 9785.61) scale(25.73 -15.49)" gradientUnits="userSpaceOnUse">
      <stop offset="0" stop-color="#000"/>
      <stop offset="1" stop-color="#545454"/>
    </linearGradient>
    <linearGradient id="linear-gradient-4" x1="-853.92" y1="626.38" x2="-854.97" y2="626.11" gradientTransform="translate(45577.28 9502.66) scale(53.26 -15.1)" gradientUnits="userSpaceOnUse">
      <stop offset="0" stop-color="#000"/>
      <stop offset="1" stop-color="#545454"/>
    </linearGradient>
    <linearGradient id="linear-gradient-5" x1="-811.47" y1="625.87" x2="-812.52" y2="625.6" gradientTransform="translate(12161 9378.68) scale(14.81 -14.8)" gradientUnits="userSpaceOnUse">
      <stop offset="0" stop-color="#000"/>
      <stop offset="1" stop-color="#545454"/>
    </linearGradient>
    <linearGradient id="linear-gradient-6" x1="-807.94" y1="612.79" x2="-808.99" y2="612.51" gradientTransform="translate(11331.58 6342.89) scale(13.97 -10.17)" gradientUnits="userSpaceOnUse">
      <stop offset="0" stop-color="#000"/>
      <stop offset="1" stop-color="#545454"/>
    </linearGradient>
    <linearGradient id="linear-gradient-7" x1="-767.13" y1="630.56" x2="-768.18" y2="630.29" gradientTransform="translate(6494.71 11331.72) scale(8.44 -17.76)" gradientUnits="userSpaceOnUse">
      <stop offset="0" stop-color="#000"/>
      <stop offset="1" stop-color="#545454"/>
    </linearGradient>
    <linearGradient id="linear-gradient-8" x1="-812.47" y1="636.35" x2="-811.42" y2="636.07" gradientTransform="translate(12304.57 14991.57) scale(14.95 -23.36)" gradientUnits="userSpaceOnUse">
      <stop offset="0" stop-color="#000"/>
      <stop offset="1" stop-color="#545454"/>
    </linearGradient>
    <linearGradient id="linear-gradient-9" x1="-821.58" y1="604.24" x2="-822.63" y2="603.96" gradientTransform="translate(14788.39 5170.98) scale(17.89 -8.46)" gradientUnits="userSpaceOnUse">
      <stop offset="0" stop-color="#000"/>
      <stop offset="1" stop-color="#545454"/>
    </linearGradient>
    <linearGradient id="linear-gradient-10" x1="-799.04" y1="585.91" x2="-800.09" y2="585.64" gradientTransform="translate(9874.93 3672.37) scale(12.23 -6.2)" gradientUnits="userSpaceOnUse">
      <stop offset="0" stop-color="#000"/>
      <stop offset="1" stop-color="#545454"/>
    </linearGradient>
    <linearGradient id="linear-gradient-11" x1="-737.46" y1="616.19" x2="-738.51" y2="615.92" gradientTransform="translate(4865.36 6955.43) scale(6.56 -11.09)" gradientUnits="userSpaceOnUse">
      <stop offset="0" stop-color="#000"/>
      <stop offset="1" stop-color="#545454"/>
    </linearGradient>
    <linearGradient id="linear-gradient-12" x1="-737.92" y1="616.19" x2="-736.87" y2="615.92" gradientTransform="translate(4986.4 6949.6) scale(6.56 -11.09)" gradientUnits="userSpaceOnUse">
      <stop offset="0" stop-color="#000"/>
      <stop offset="1" stop-color="#545454"/>
    </linearGradient>
    <linearGradient id="linear-gradient-13" x1="-537.16" y1="611.53" x2="-538.21" y2="611.25" gradientTransform="translate(1525.3 6090.71) scale(2.61 -9.88)" gradientUnits="userSpaceOnUse">
      <stop offset="0" stop-color="#000"/>
      <stop offset="1" stop-color="#545454"/>
    </linearGradient>
    <linearGradient id="linear-gradient-14" x1="-513.51" y1="613.19" x2="-514.56" y2="612.91" gradientTransform="translate(1307.1 6346.92) scale(2.44 -10.29)" gradientUnits="userSpaceOnUse">
      <stop offset="0" stop-color="#000"/>
      <stop offset="1" stop-color="#545454"/>
    </linearGradient>
    <linearGradient id="linear-gradient-15" x1="-677.11" y1="590.42" x2="-678.16" y2="590.14" gradientTransform="translate(3111.24 3955.5) scale(4.51 -6.63)" gradientUnits="userSpaceOnUse">
      <stop offset="0" stop-color="#000"/>
      <stop offset="1" stop-color="#545454"/>
    </linearGradient>
    <linearGradient id="linear-gradient-16" x1="-751.6" y1="495.61" x2="-752.65" y2="495.34" gradientTransform="translate(5588.51 1363.12) scale(7.34 -2.68)" gradientUnits="userSpaceOnUse">
      <stop offset="0" stop-color="#000"/>
      <stop offset="1" stop-color="#545454"/>
    </linearGradient>
    <linearGradient id="linear-gradient-17" x1="-330.84" y1="564.88" x2="-331.89" y2="564.6" gradientTransform="translate(654.04 2818.47) scale(1.61 -4.74)" gradientUnits="userSpaceOnUse">
      <stop offset="0" stop-color="#000"/>
      <stop offset="1" stop-color="#545454"/>
    </linearGradient>
    <linearGradient id="linear-gradient-18" x1="-670.28" y1="525.88" x2="-671.33" y2="525.6" gradientTransform="translate(2956.91 1858.77) scale(4.35 -3.3)" gradientUnits="userSpaceOnUse">
      <stop offset="0" stop-color="#000"/>
      <stop offset="1" stop-color="#545454"/>
    </linearGradient>
    <linearGradient id="linear-gradient-19" x1="-109.87" y1="529.88" x2="-110.92" y2="529.61" gradientTransform="translate(214.54 1859.83) scale(1.15 -3.41)" gradientUnits="userSpaceOnUse">
      <stop offset="0" stop-color="#000"/>
      <stop offset="1" stop-color="#545454"/>
    </linearGradient>
    <linearGradient id="linear-gradient-20" x1="-585.47" y1="431.07" x2="-586.52" y2="430.8" gradientTransform="translate(1867.94 822.46) scale(3.06 -1.9)" gradientUnits="userSpaceOnUse">
      <stop offset="0" stop-color="#000"/>
      <stop offset="1" stop-color="#545454"/>
    </linearGradient>
    <linearGradient id="linear-gradient-21" x1="-526.38" y1="438.09" x2="-527.43" y2="437.82" gradientTransform="translate(1450.83 904.56) scale(2.53 -1.96)" gradientUnits="userSpaceOnUse">
      <stop offset="0" stop-color="#000"/>
      <stop offset="1" stop-color="#545454"/>
    </linearGradient>
    <linearGradient id="linear-gradient-22" x1="-340.17" y1="518.53" x2="-341.22" y2="518.26" gradientTransform="translate(578.59 1750.95) scale(1.64 -3.12)" gradientUnits="userSpaceOnUse">
      <stop offset="0" stop-color="#000"/>
      <stop offset="1" stop-color="#545454"/>
    </linearGradient>
    <linearGradient id="linear-gradient-23" x1="-516.95" y1="416.86" x2="-518" y2="416.58" gradientTransform="translate(1323.76 793.58) scale(2.46 -1.79)" gradientUnits="userSpaceOnUse">
      <stop offset="0" stop-color="#000"/>
      <stop offset="1" stop-color="#545454"/>
    </linearGradient>
    <linearGradient id="linear-gradient-24" x1="-352.66" y1="428.61" x2="-353.71" y2="428.34" gradientTransform="translate(672.51 883.23) scale(1.68 -1.88)" gradientUnits="userSpaceOnUse">
      <stop offset="0" stop-color="#000"/>
      <stop offset="1" stop-color="#545454"/>
    </linearGradient>
    <linearGradient id="linear-gradient-25" x1="-621.71" y1="511.07" x2="-622.76" y2="510.8" gradientTransform="translate(2214.94 1629.45) scale(3.5 -2.96)" gradientUnits="userSpaceOnUse">
      <stop offset="0" stop-color="#000"/>
      <stop offset="1" stop-color="#545454"/>
    </linearGradient>
    <linearGradient id="linear-gradient-26" x1="-325.57" y1="473.71" x2="-326.62" y2="473.44" gradientTransform="translate(636.17 1147.46) scale(1.6 -2.35)" gradientUnits="userSpaceOnUse">
      <stop offset="0" stop-color="#000"/>
      <stop offset="1" stop-color="#545454"/>
    </linearGradient>
    <linearGradient id="linear-gradient-27" x1="-470.75" y1="139.91" x2="-471.8" y2="139.63" gradientTransform="translate(1063.61 228.28) scale(2.18 -.83)" gradientUnits="userSpaceOnUse">
      <stop offset="0" stop-color="#000"/>
      <stop offset="1" stop-color="#545454"/>
    </linearGradient>
  </defs>
  <g id="Group_104">
    <g id="Group_104-2">
      <path id="Path_451" class="cls-26" d="M120.2,113.01c-.29.17-.69.28-.84.53-1.32,2.2-2.54,4.45-3.92,6.6-.23.36-1.06.37-1.62.5-.5.12-1.03.15-1.53.27-.26.06-.64.37-.73.29-1.12-.92-1.65.35-2.41.64-.67.29-1.31.66-1.9,1.1-.45.3-.85.67-1.2,1.08-1.35,1.68-4.9,1.37-6-.58-.74.45-1.43.98-2.06,1.58-3.32,3.93-9.66,7.1-13,11-1.21,1.31-2.5,2.55-3.87,3.7-.7.64-1.48,1.19-2.24,1.77-.14.09-.31.15-.48.15-.93.06-1.89-.01-2.35,1.11-.06.15-.54.13-.82.18-.5-1.37-.74-1.42-2.5-.41-.32-.9-.21-2.47-2.24-1.07.29-.87.46-1.34.6-1.83.21-.74.45-1.47.6-2.23.11-.58-.23-1.31.67-1.58.1-.03.2-.51.11-.64-.18-.22-.43-.35-.71-.37-.48.06-.96.16-1.43.32.62-1.23,2.83-1.82,3.32-2.77.24-.45,1.95-.4,2.13-.87.28-.72.47-1.48.69-2.21-.89-.2-1.77-.44-2.67-.6-.79-.15-1.6-.25-2.4-.33-1.56-.15-2-1.36-2.51-2.55-.3-.63-.64-1.24-1.01-1.83l-.46-.05c-.36.67-.76,1.32-1.07,2.01-.39.89-.65,1.85-1.07,2.73-.19.52-.56.95-1.04,1.23-1.36.46-1.34,1.48-1.09,2.48.28.91-.02,1.91-.76,2.51-.51.48-.94,1.04-1.28,1.65-.14.89-.33,1.78-.57,2.65-.34,1-.75,1.98-1.24,2.92-.32.64-.73,1.22-1.22,1.75-.23.25-.72.26-1.09.37-.12-.39-.46-.93-.32-1.15.69-1.06.07-2.64,1.51-3.45.42-.24.75-1.24-.38-1.7-.46-.19-.68-.95-1.15-1.65-.47.75-.98,1.47-1.53,2.16-.46.52-1.02,1.19-1.63,1.3-1.07.2-1.3.57-.96,1.54.04.47.02.95-.08,1.41-.43-.62-.58-1.04-.86-1.18-.33-.16-1.05-.23-1.14-.07-.75,1.36-2.18.35-3.12.96-.07-.4-.34-.9-.19-1.19.43-.89.17-1.41-.67-1.69-.91-.3-.91.42-1.22,1.01s-1.04.93-1.78,1.54c.15.25.27.52.38.79.09.22.09.47,0,.69-.19.14-.44.17-.66.1-1.15-.4-2.28-.85-3.01-1.13-.08-.76-.07-1.53.03-2.28.34-1.48.86-2.9,1.56-4.24,2.29-3.76,4.65-7.49,7.2-11.08,1.89-2.66,4.13-5.06,6.18-7.6.85-1.06,1.64-2.18,2.43-3.28s-.1-1.34-.89-1.54c.4-2.14.22-1.86-1.87-3.19-1.97-1.25-2.43.92-3.92,1.17.06-.3.16-.59.3-.86.41-.48.9-.9,1.32-1.37,1.3-1.43,1.96-2.95,1.13-4.95-.37-.88-.11-2-.28-2.98-.72-4.24-1.52-8.46-2.24-12.7-.12-.73.03-1.5-.04-2.25-.11-1.21-.34-2.41-.43-3.61-.17-2.31-1.3-4.55-.19-6.96.31-.96.28-2-.09-2.94-.77-2.22-.14-4.39-.11-6.58.04-2.6.04-5.19.06-7.79,0-.04,0-.09,0-.13.43-1.92.89-3.83,1.29-5.75.23-1.11.38-2.24.57-3.35.14-.8.29-1.61.44-2.41l-.34-.25,1.55-.35c-.28,1.56-.51,2.96-.79,4.35-.59,2.85-.04,5.65.29,8.48.19,1.68.08,3.4.37,5.06.27.96.73,1.86,1.33,2.65.52.82,1.18,1.55,1.85,2.41.56-.4.91-.03,1.27.75.42.72.93,1.37,1.52,1.95.54.62,1.08,1.24,1.62,1.86.19.22.54.48.51.66-.15.83.32,1.24.93,1.59.53.34,1.11.58,1.72.72.74,1.06,1.63,1.12,2.88.77,1.33-.37,2.05.76,2.68,1.72,1.02,1.56,1.97,3.15,2.93,4.74.26.43.49.88.71,1.34.31.64.33,1.58,1.47,1.24.09-.03.24.08.33.17,1.22,1.26,2.93,1.57,4.46,2.14.99.37,2.28-.1,3.32.2.9.37,1.91.43,2.85.15.31-.11.71-.3.82-.56.63-1.81,2.39-2.98,4.3-2.86,1.69.02,2.61-1.05,3.61-2.09.29-.3.55-.76.9-.84,1.9-.44,2.79-2.03,3.76-3.39.4-.69,1.18-1.07,1.97-.95.36-.05.69-.24.91-.52.37-.43.57-1.02.97-1.43,1.26-1.27,2.68-2.38,4.21-3.31.56-.5.96-1.14,1.17-1.85.37-.89.55-1.85.91-2.74.09-.22.55-.3.84-.43,1.26-.55,1.7-1.6,1.13-2.37,1.88-.9,3.26-2.6,3.74-4.63.42-2.08.56-4.22.97-6.3.28-.91.66-1.78,1.12-2.6l.5-.02c.44.86.81,1.74,1.11,2.66.43,1.69.77,3.4,1.01,5.13.16,1.28.21,2.58.12,3.87-.22,1.15-.17,2.33.14,3.45.4,1.06-.18,2.45-.07,3.67.12,1.36-.28,2.77.59,4.12.36.57.03,1.62-.07,2.44-.12.91-.35,1.8-.5,2.71-.26,1.61-.37,3.25-.79,4.82s.04,2.97,1.49,3.5c.09,2.17.85,2.82,3.1,3.23.94.32,1.83.79,2.62,1.39.54.31,1.06.65,1.58,1,1.4.93,2.84,1.82,4.18,2.83.59.38.77,1.17.39,1.76-.08.13-.19.25-.32.34-.61.65-1.13,1.37-1.73,2.04-.46.51-.62,1.17.16,1.24,2.44.21,3.23,1.65,3.15,3.7.63.14,1.27.23,1.92.27.46,0,.91-.12,1.32-.34,1.54-.85,2.79-.71,3.6.9.79,1.56,1.69,2.23,3.38,1.62.11-.04.29.09.59.2-1.92,2.39-3.91,4.58-5.57,7.01s-2.98,5.1-4.68,7.58c.26-.63.49-1.26.77-1.88,1.07-2.36,2.18-4.7,3.22-7.07.21-.49.6-1.2-.32-1.46-.76-.22-1.26-.03-1.4.93-.07.52-.57.98-.92,1.45-.74.99-1.51,1.96-2.51,3.24-.11-1.06-.18-1.74-.25-2.41l-.37-.2c-.54.79-1.07,1.58-1.61,2.38-.36.54-.71,1.09-1.07,1.64l-.29-.12c.06.23.24.57.15.68-.98,1.16-.16,2.47-.38,3.64-.37,1.34-.88,2.63-1.53,3.86-1.62,3.77-3.66,7.4-3.55,11.72-.03,1.36-.18,2.72-.44,4.06-.13.45-.33.89-.58,1.29l-.35-.09c-.08-1.28-.07-2.57.03-3.86.33-2.27.78-4.51,1.35-6.73.61-2.36,1.43-4.67,2.12-7.02.13-.37.13-.77,0-1.14-.61-1.07-.79-2.7-2.83-2.25,1.71,1.95-.55,3.17-.81,4.95-.85-.21-1.67-.55-2.41-1.02-1.15-1.03-1.76.4-2.75.2.05.16.09.33.12.49.04.52.27,1.37.06,1.49-.78.47-.95-.33-1.2-.84s-.5-1.05-.79-1.67l1.35-.37c.19-1.45.37-2.8.54-4.16l-.42-.11c-3.69,5.24-6.35,11.12-7.87,17.34,1.06-9.68,6.3-17.66,10.76-25.95l-.29-.37Z"/>
      <path id="Path_452" class="cls-3" d="M91.47,13.62c-.89,0-1.71.04-2.54-.01-.92-.06-.84-.54-.36-1.08.44-.5.92-.98,1.39-1.48-1.62-2.08-2.59.28-3.99.35l1.64,1.49-.22.3-1.49-.18-.55-1.66c.41-.19.81-.41,1.18-.66.3-.19.5-.49.58-.84.01-.31-.31-.91-.47-.91-1.25.05-1.23-1.1-1.86-1.85l-1.99,1c0-.28-.16-.79.03-1.06.55-.78.69-1.76.02-2.17-.55-.34-1.56.03-2.36.15-.49.1-.97.24-1.44.4.06-.99.1-1.64.15-2.41l1-.31.06-.35-2.13-.72-3.25-.7.04-.44c1.56.15,3-1.16,4.71.09.9.66,2.29.61,3.28,1.18,1.64.95,3.5.6,5.19,1.18,1.76.6,3.69.89,5.27,1.8,1.51.86,3.11.22,4.54.86.1.05.3-.15.47-.2.33-.11.67-.2,1-.3l.12.29-.65.8c.61.21,1.21.46,1.8.74,2.71,1.27,5.33,2.71,7.85,4.33,2.23,1.75,3.77,4.23,4.35,7.01.25.94.58,1.86.98,2.74.53.9.8,1.93.79,2.97-.07,1.12.73,2.28,1.11,3.43.42,1.27.81,2.55,1.21,3.83l-.31.18-.79-.44-1.04.83c-.94-1.15-1.83-2.27-2.74-3.36-.46-.55-.96-1.07-1.43-1.62-1.03-1.1-2.01-2.26-2.93-3.46-.84-1.35-2.07-2.41-3.54-3.04-1.09-.43-2.05-1.2-3.14-1.65-2.15-.9-4.35-1.67-6.51-2.54-.4-.24-.76-.53-1.08-.87l-1.98-1.63Z"/>
      <path id="Path_453" class="cls-10" d="M90.44,75.71q-.42-1.48-3.6-1.69l2.96-1.13c-.78-.73-1.92-.91-2.89-.46-2.52.77-5.08.15-7.6.36-1.05.09-2.15-.14-3.17.05-1.61.29-2.88-.47-4.19-1.09-.33-.23-.54-.6-.56-1,0-.25.47-.75.68-.73,2.22.27,3.87-1.39,5.93-1.68.9-.22,1.84-.13,2.68.24,1.17.58,2.27,1.14,3.73.11,1.41-.94,3.14-1.26,4.79-.9.88.05,1.75,0,2.62-.16.32.01.65.05.96.12.47-.79,1.49-1.06,2.28-.59.2.12.38.28.52.48.16.25.35.48.55.69,1.22.98,1.4,1.88.13,2.77-2.06,1.44-2.1,3.59-2.31,5.66-.23,2.15-1.22,3.85-3.25,4.46-1.43.44-2.92.69-4.42.74-1.7.05-3.38.92-5.13.11-1.01-.47-2.16-.66-3.14-1.19-.48-.26-.69-1.01-1.01-1.52,1.8,0,3.38-.09,4.95.02,1.81.07,3.57-.62,4.83-1.92,1.14-.74,2.38-1.33,3.68-1.75Z"/>
      <path id="Path_454" class="cls-9" d="M89.34,45.29l-1.16-.3c.25.81.46,1.63.61,2.47,0,.52-.09,1.04-.24,1.54-.75-.13-1.6.16-2.09-.81-.82-1.78-1.02-3.79-.59-5.7.21-1.26.08-1.51-1.2-1.6-.38-.03-.77-.03-1.15-.02-2.26.04-2.46.24-2.93,2.41-.33,1.48-.76,2.94-1.19,4.4-.12.32-.36.58-.66.74.35-2.46,1.46-4.82.81-7.36-.08,0-.16.02-.24.04.08,1.96-1.57,2.84-2.65,4.02-.74.63-1.6,1.11-2.53,1.41-.21.09-.65-.14-.9-.33-.88-.68-2-.97-3.1-.8-1.33.17-2.06-.29-2.02-1.7-.01-.09-.05-.17-.1-.23-.09-.12-.19-.24-.3-.34-.46.26-1.27.45-1.38.84-.38,1.36-1.45,1.52-2.5,1.8-1.21.32-2.41.69-3.62.98-.3.07-.82.02-.96-.18-.27-.39-.41-.86-.41-1.33,0-.15.63-.42.97-.41.46.08.91.21,1.34.4.86.27,1.59.27,1.92-.81.15-.35.41-.64.74-.82,1.34-.82,2.7-1.6,4.06-2.4,1.6-.94,3.39-.62,5.11-.76.66-.11,1.32-.26,1.96-.45-.15-.23-.29-.46-.41-.71-.12-.34-.2-.7-.3-1.04.37.07.74.15,1.1.26.64.34,1.34.59,2.05.74,3.4.03,6.8-.05,10.19-.11,1.11-.05,2.1-.69,2.59-1.69.81-1.06,1.9-1.88,3.15-2.36,1.57-.65,3.23-1.04,4.92-1.16,1.16.1,2.29.4,3.35.88.28.08.55.41.79.37,2.14-.32,3.04,1.3,4.19,2.57.23.18.51.29.8.31.72.1,1.44.17,2.16.21,2.61.16,2.92.57,2.31,3.2l-1.81.41c-.04-.07-.11-.14-.12-.21-.26-2.63-.81-3.11-3.68-3.16-1.36.13-2.7-.33-3.69-1.27-1.58-1.63-6.81-1.11-8.39.93l2.45.19-.08-.34c-2.75.57-5.51,1.08-8.24,1.74-1.27.31-1.47,1.08-.75,2.21.38.6.92,1.09,1.33,1.67.28.45.53.92.74,1.41l-.25.26Z"/>
      <path id="Path_455" class="cls-11" d="M135.68,124.21c.23-.46.44-.94.7-1.38,1.45-2.51,2.78-5.1,4.41-7.48,1.33-1.94,2.48-4.1,4.6-5.42.84-.52,1.23-.52,1.54.51.25.56.58,1.07.99,1.52.76,1.05,1.58,2.06,2.29,3.13.43.64.42,1.25-.48,1.62-1.48.61-2.88,1.42-4.39,1.93-.89.15-1.79.16-2.68.05.04-.51.08-1.12.15-2.09-.74.34-1.54.45-1.89.9-1.48,1.9-2.82,3.9-4.2,5.87-.23.33-.45.67-.67,1.01l-.38-.18Z"/>
      <path id="Path_456" class="cls-23" d="M39.67,117.18c-.65.79-1.06,1.36-1.55,1.85-.33.29-.7.55-1.08.77-.16-.49-.57-1.07-.44-1.46.38-.93.83-1.83,1.35-2.7.15-.29.43-.67.34-.9-.48-1.28.52-1.71,1.26-2.16,1.51-.93,3.07-1.79,4.67-2.56.67-.29,1.41-.42,2.14-.36,1.3.09,2.59.35,4.17.59-.22.29-.47.57-.73.83-2.1,1.79-4.19,3.59-6.31,5.36-.73.61-1.55,1.12-2.3,1.72-.87.7-1.27.31-1.54-.97Z"/>
      <path id="Path_457" class="cls-18" d="M11.14,144.7c-1.31-1.99-1.24-2.49.03-4.27.65-.91,1.6-3.83,2.18-4.8,1.02-1.68,2.16-3.29,3.21-4.96.18-.42.32-.86.42-1.31.29-.79.6-1.58.91-2.36l.6.14c.04.43,0,.86-.12,1.28-.68,1.35-.81,2.9-.35,4.34.21.83.7,1.58.11,2.55-.19.3.47,1.12.5,1.86-.48-.74-.94-1.51-1.47-2.22-.29-.31-.62-.59-.98-.83-.12.49-.5,1.27-.32,1.43,1.28,1.16.74,3.25,2.26,4.27.17.32.17.71-.01,1.03-.73.48-1.08,1.38-.86,2.23.03.18-.55.7-.76.66-.85-.17-2.36,1.33-3.14.96-1.16-.54-1.14-.59-2.22,0Z"/>
      <path id="Path_482" class="cls-14" d="M164.86,138.87c1.31-1.99,1.24-2.49-.03-4.27-.65-.91-1.6-3.45-2.18-4.42-1.02-1.68-7.69-9.27-8.74-10.94-.18-.42-.32-.86-.42-1.31-.29-.79-.6-1.58-.91-2.36l-.6.14c-.04.43,0,.86.12,1.28.77,1.41-.48,2.05-.85,3.54-.21.83-.7,1.58-.11,2.55.19.3,6.26,7.54,6.23,8.27.48-.74-4.59-7.11-4.06-7.82.29-.31.62-.59.98-.83.12.49.5,1.27.32,1.43-1.28,1.16,4.79,8.86,3.27,9.88-.17.32-.17.71.01,1.03.73.48,1.08,1.38.86,2.23-.03.18.55.7.76.66.85-.17,2.36,1.33,3.14.96,1.16-.54,1.14-.59,2.21,0Z"/>
      <path id="Path_458" class="cls-19" d="M76.67,60.13c1.21-.88,2.88-.8,3.99.21.65.64,1.62.83,2.47.49.41-.17.96.01,1.37-.16.74-.2,1.41-.6,1.95-1.14.64-.91,1.15-1.58,2.33-.92.2.08.41.12.62.12,2.48.31,2.91-.1,2.63-2.93,1.05,1.79,2.51,2.93,2.36,4.93-.05.59-.12.95-.86,1.14-.7.29-1.33.72-1.84,1.28-.82.83-1.98,1.22-3.14,1.08-1.01-.14-2.02-.24-3.02-.41-1.87-.33-3.26-1.54-4.74-2.6-.86-.61-1.74-1.21-2.8-.17-.18.18-.96-.26-1.47-.41l.16-.51Z"/>
      <path id="Path_459" class="cls-5" d="M100.95,44.51c-.11-.46-.2-.87-.29-1.28-.31.24-.66.43-1.03.57-.85.18-1.72.28-2.58.38-1.08.13-1.72-.23-1.65-1.45.01-.21-.23-.43-.45-.81,2.28-1.02,4.78-1.46,7.27-1.28v-.45s-2.39-.55-2.39-.55c1.18-.63,2.61-.49,3.65.35.77.81,1.43,1.72,1.94,2.71l1.53-.69c.15.68.22,1.37.21,2.06-.08.84-.82,1.45-1.65,1.37-.07,0-.14-.02-.2-.03-1.5-.2-2.97-.6-4.37-.9Z"/>
      <path id="Path_460" class="cls-21" d="M29.34,119.04c.17-.88.27-1.58.46-2.26.07-.25.37-.44.84-.97,0,1.26.29,2.29-.05,3.05-1.2,2.71-2.61,5.33-3.97,8.04-.05-.03-.38-.1-.46-.27-.68-1.53-1.34-3.07-1.95-4.63-.07-.18.12-.57.3-.74.87-.86,1.78-1.68,2.67-2.52.92-.86,1.33-.83,2.16.31Z"/>
      <path id="Path_481" class="cls-6" d="M146.66,113.21c-.17-.88-.27-1.58-.46-2.26-.07-.25-.37-.44-.84-.97,0,1.26-.29,2.29.05,3.05,1.2,2.71,2.61,5.33,3.97,8.04.05-.03.38-.1.46-.27.68-1.53,1.34-3.07,1.95-4.63.07-.18-.12-.57-.3-.74-.87-.86-1.78-1.68-2.67-2.52-.91-.86-1.33-.83-2.16.31Z"/>
      <path id="Path_461" class="cls-2" d="M120.49,55.5c-.23-.51-.41-1.05-.56-1.59-.35-1.87-.67-3.74-.92-5.62-.11-.61-.03-1.23.23-1.79.25-.42.92-.59,1.41-.88.27.38.48.79.62,1.23.57,3.29.37,6.44-.78,8.64Z"/>
      <path id="Path_462" class="cls-15" d="M52.9,42.2c.77.57.93,1.66.35,2.43-.07.09-.15.18-.24.26-.99-1.36-1.74-2.64-1.26-4.32.52-2.03,1.17-4.02,1.93-5.97-.29,2.51,1.43,5.19-.79,7.6Z"/>
      <path id="Path_463" class="cls-1" d="M57.6,46.68c-1.27-.32-1.17-.99-.97-1.69.24-.83.19-1.38-.9-1.51-.44-.17-.75-.56-.83-1.02.05-.69.24-1.78.67-1.94,1.24-.37,2.54-.53,3.84-.46-2.55.27-2.12,2.06-2.06,3.62.04.95.15,1.89.25,2.99Z"/>
      <path id="Path_464" class="cls-25" d="M73.72,38.67l-7.34-1.65c.16-.26.25-.55.37-.56,1.52-.28,3.06-.44,4.61-.46.79.03,2.09.2,1.82,1.72-.04.24.3.55.54.95Z"/>
      <path id="Path_465" class="cls-17" d="M119.63,139.43c1.32,1.65.48,3.23-.26,4.74-.95-.95-.91-2.09.26-4.74Z"/>
      <path id="Path_466" class="cls-29" d="M34.71,123.72c1.73-.76,2.03-3.32,4.35-3.3-.53,1.38-2.73,3.39-4.35,3.3Z"/>
      <path id="Path_467" class="cls-22" d="M88.31,56c-.57-1.06-.58-2.34-.02-3.41.96.94.98,2.09.02,3.41Z"/>
      <path id="Path_468" class="cls-16" d="M78.47,3.27l-1.81.73.44-1.07-1.67-.27.08-.44c1.13-.41,2.02.28,2.98.71v.34Z"/>
      <path id="Path_469" class="cls-24" d="M116.51,43.51c.62.33,1.23.69,1.81,1.08.12.09.08.55-.04.76-.19.14-.44.17-.66.08-.61-.33-1.18-.74-1.76-1.12l.64-.8Z"/>
      <path id="Path_470" class="cls-12" d="M20.01,132.2l-1.52-2.9.46-.23c.99.7,1.41,1.97,1.05,3.12Z"/>
      <path id="Path_471" class="cls-27" d="M50.17,48.37l-2.43,1.2c.31-.73.4-1.47.79-1.69.41-.24,1.11.02,1.68.06l-.04.43Z"/>
      <path id="Path_472" class="cls-13" d="M78.1,77.9c-.14-.6-.55-1.32.44-1.6.29-.08.69.24,1.04.38l-.99,1.49-.49-.27Z"/>
      <path id="Path_474" class="cls-4" d="M33.96,116.96l3.17-2.63.34.41-3.21,2.55-.29-.33Z"/>
      <path id="Path_475" class="cls-8" d="M115.61,35.55l-1.17-2.13.38-.22,1.22,2.1-.43.25Z"/>
      <path id="Path_476" class="cls-7" d="M38.02,113.1l-2.18.12c.6-1.06,1.01-1.1,2.18-.12Z"/>
    </g>
    <g id="Group_105">
      <path id="Path_477" class="cls-20" d="M176,196.92h-7.43v-45.13c-.35-1.9.9-3.73,2.8-4.08.05,0,.09-.02.14-.02,1.75-.53,3.31-1.55,4.5-2.93v52.17h0ZM119.09,178.62v-6.03c-.06-.92.14-1.85.56-2.67.59-.69,1.37-1.18,2.24-1.44,1.68-.54,3.17-1.56,4.29-2.93v19.95h-.01v8.16c.07,1.73-1.26,3.18-2.99,3.26-.09,0-.18,0-.27,0h-15.11v-4.96c0-7.14,3.8-11.61,11.29-13.35h0ZM148.28,175.92v-3.33c-.35-1.9.9-3.73,2.8-4.08.05,0,.09-.02.14-.02,1.75-.53,3.31-1.55,4.5-2.93v12.92h.57c3.58,0,6.19,1.11,7.95,3.19,1.32,1.74,2,3.88,1.95,6.06v5.93c.07,1.72-1.26,3.18-2.99,3.26-.09,0-.18,0-.27,0h-17.27v-7.11h13.1v-1.3c0-1.96-.91-2.93-2.81-2.93h-7.69v-9.67h0ZM44.96,194.25h-.04v-.58s0-27.14,0-27.14h0s0-1.05,0-1.05h7.43v24.35h11.39c-1.19-1.17-2.2-2.51-3-3.97-.45-1.05-1.46-1.73-2.6-1.76-.99.11-1.91.6-2.54,1.37v-7.69c1.3-.61,2.74-.88,4.17-.78,1.57-.03,3.1.45,4.37,1.37,1.31,1.14,2.39,2.5,3.19,4.04,1.01,1.89,2.17,3.7,3.46,5.41.77.85,1.7,1.53,2.73,2.02v3.85c.01.88-.34,1.73-.98,2.35-.6.6-1.42.93-2.27.91h-22.09c-1.6.08-3-1.09-3.21-2.68h0ZM44.92,155.69v-3.89c-.35-1.9.9-3.73,2.8-4.08.05,0,.09-.02.14-.02,1.75-.53,3.31-1.55,4.5-2.93v10.93h-7.44ZM144.21,196.93h-7.43v-31.46h7.43v31.46ZM136.78,155.69v-3.89c-.35-1.9.9-3.73,2.8-4.08.05,0,.09-.02.14-.02,1.75-.53,3.31-1.55,4.5-2.93v10.93h-7.44ZM7.64,196.93h-1.96c-1.73.07-3.19-1.28-3.26-3.01,0-.08,0-.16,0-.25v-48.78c1.19,1.38,2.75,2.4,4.5,2.93.9.24,1.72.74,2.35,1.44.44.82.65,1.74.59,2.67v37.9h12.97v-5.8c-.07-.91.14-1.82.59-2.61.6-.74,1.42-1.27,2.35-1.5,1.72-.58,3.27-1.59,4.5-2.93v12.84h4.31v-5.8c-.07-.91.13-1.82.59-2.61.6-.74,1.42-1.27,2.35-1.5,1.72-.58,3.26-1.59,4.49-2.93v16.69c.08,1.72-1.26,3.18-2.98,3.26-.09,0-.18,0-.28,0H7.64ZM34.62,204.09c.04,2.09-1.62,3.81-3.71,3.85-.04,0-.09,0-.13,0-1,.01-1.97-.39-2.67-1.11-1.51-1.43-1.57-3.82-.14-5.33.05-.05.09-.09.14-.14.7-.72,1.67-1.11,2.67-1.1,2.08-.04,3.8,1.62,3.84,3.7,0,.05,0,.09,0,.14h0ZM26.46,204.09c.03,2.1-1.65,3.82-3.74,3.85-.04,0-.07,0-.1,0-1.01.01-1.97-.39-2.67-1.11-1.51-1.44-1.57-3.83-.13-5.34.04-.04.09-.09.13-.13.7-.72,1.67-1.11,2.67-1.1,2.09-.03,3.81,1.63,3.85,3.72,0,.04,0,.08,0,.11h0ZM42.12,170.67c0,1-.39,1.97-1.11,2.67-1.44,1.51-3.83,1.57-5.34.13-.05-.04-.09-.09-.13-.13-.72-.7-1.12-1.66-1.11-2.67-.03-2.12,1.66-3.87,3.78-3.91,2.12-.03,3.87,1.66,3.91,3.78,0,.04,0,.08,0,.12ZM94.03,200.51c0,4.96-3.12,7.43-9.45,7.43-2.17.05-4.31-.57-6.12-1.76-1.92-1.23-3.06-3.39-3-5.67h11.47v-3.59h-11.28v-6.46c0-12.02,11.3-7.04,11.3-17.88-.06-.92.14-1.85.56-2.67.59-.69,1.37-1.18,2.24-1.44,1.06-.35,2.06-.88,2.93-1.58.33-.57.79-1.05,1.34-1.41v.08l.02-.03v19.95h-.02v15ZM86.93,189.82v-4.82c-2.61.46-3.97,2.02-4.17,4.82h4.17ZM106.4,202.2c.03,1.33-.55,2.6-1.56,3.45-.98.94-2.29,1.46-3.65,1.44-1.53.09-3.04-.4-4.23-1.37-1.03-.88-1.6-2.17-1.56-3.52v-2.54h3.59v-27.16c-.07-.91.13-1.81.59-2.6.6-.74,1.42-1.27,2.35-1.5,1.72-.58,3.26-1.59,4.49-2.94v36.73h0ZM119.07,189.82v-4.82c-2.6.46-3.97,2.02-4.17,4.82h4.17ZM135.26,202.2c.02,1.33-.55,2.59-1.56,3.45-.98.94-2.29,1.46-3.65,1.44-1.53.09-3.04-.4-4.23-1.37-1.03-.88-1.6-2.17-1.56-3.52v-2.54h3.58v-27.2c-.07-.91.14-1.81.59-2.6.6-.74,1.43-1.26,2.35-1.5,1.72-.58,3.27-1.59,4.5-2.93v36.77h0Z"/>
      <path id="Path_478" class="cls-28" d="M84.22,164.27H15.25c-1.73.08-3.18-1.26-3.26-2.99,0-.09,0-.18,0-.27v-6.32c0-1.17.19-4.98.59-5.57.62-.7,1.44-1.19,2.34-1.44,1.75-.53,3.31-1.55,4.5-2.94v12.41h139.51v-12.41c1.19,1.38,2.75,2.4,4.5,2.94.9.24,1.72.74,2.34,1.44.39.59.59,4.4.59,5.57v6.32c.07,1.73-1.26,3.18-2.99,3.26-.09,0-.18,0-.27,0h-78.88ZM97.25,148.59c0,1.03-.42,2.02-1.17,2.73-.7.72-1.67,1.12-2.67,1.11-2.1.03-3.82-1.65-3.85-3.74,0-.04,0-.07,0-.11-.01-1,.39-1.97,1.11-2.67.71-.75,1.7-1.18,2.74-1.17,2.08.09,3.75,1.76,3.84,3.84h0ZM88.78,148.59c.03,2.09-1.64,3.82-3.74,3.85-.04,0-.07,0-.11,0-1.01.01-1.97-.39-2.67-1.11-.75-.71-1.18-1.7-1.17-2.73.09-2.08,1.76-3.75,3.85-3.84,1.04,0,2.03.42,2.74,1.17.72.7,1.12,1.66,1.11,2.67h0Z"/>
      <path id="Path_479" class="cls-28" d="M6.43,227.18v.31H0v-.31h.41c.3.01.59-.05.86-.18.16-.09.29-.23.36-.4.09-.35.13-.7.1-1.06v-7.5c.02-.37,0-.74-.1-1.09-.09-.17-.23-.3-.4-.38-.26-.12-.54-.18-.82-.16H0v-.31h6.43v.3h-.41c-.3-.01-.59.05-.86.18-.17.09-.3.23-.37.4-.09.35-.13.7-.1,1.06v7.5c-.03.37,0,.74.1,1.09.09.17.23.3.41.38.26.12.54.18.82.16h.41ZM7.1,227.49v-.31h.41c.28.02.56-.04.82-.16.18-.09.33-.24.42-.43.08-.35.11-.7.08-1.06v-7.5c.02-.37,0-.74-.1-1.09-.09-.17-.23-.3-.4-.38-.26-.12-.54-.18-.82-.16h-.41v-.31h5.51c1.21-.04,2.41.14,3.55.56,1.03.4,1.9,1.12,2.49,2.06.57.94.86,2.02.85,3.12,0,.76-.13,1.51-.42,2.22-.24.62-.61,1.19-1.08,1.67-.44.44-.96.8-1.53,1.06-.68.3-1.39.5-2.12.62-.58.08-1.16.11-1.74.1h-5.51ZM11.79,216.73v8.9c-.02.29,0,.58.07.87.05.11.14.19.25.24.22.1.47.14.71.13.88.06,1.73-.3,2.31-.96.82-1.17,1.2-2.59,1.09-4.02.06-1.21-.2-2.42-.74-3.51-.33-.63-.86-1.12-1.51-1.4-.7-.21-1.44-.29-2.17-.25h0ZM28,224.24h-4.35l-.52,1.11c-.15.28-.23.6-.25.92-.01.3.15.57.42.71.39.13.8.2,1.21.2v.31h-4.09v-.31c.41-.05.79-.22,1.09-.51.44-.52.79-1.1,1.05-1.72l4.4-9.1h.17l4.44,9.35c.25.62.6,1.18,1.04,1.67.25.19.56.29.87.3v.31h-5.95v-.31h.25c.35.03.69-.04,1.01-.19.13-.08.21-.23.2-.39,0-.11-.02-.21-.05-.31-.01-.05-.1-.26-.27-.63l-.65-1.42ZM27.69,223.62l-1.83-3.93-1.89,3.93h3.72ZM38.63,222.29v3.2c-.03.39.01.79.12,1.16.1.17.25.31.43.38.37.12.76.17,1.15.14v.31h-6.3v-.31c.39.03.78-.02,1.16-.15.18-.08.33-.21.43-.38.11-.38.16-.77.13-1.16v-7.4c.03-.39-.01-.79-.12-1.16-.1-.17-.25-.31-.43-.38-.37-.12-.76-.17-1.15-.15v-.31h5.72c1.1-.04,2.19.06,3.27.29.66.17,1.25.54,1.69,1.06.43.5.66,1.14.65,1.8.01.81-.35,1.58-.98,2.09-.52.39-1.11.66-1.75.78l2.96,3.86c.24.34.52.65.83.93.25.18.55.28.86.29v.32h-3.87l-3.96-5.2h-.81ZM38.63,216.69v5h.52c.64.02,1.27-.05,1.88-.22.41-.14.76-.41.98-.77.26-.44.38-.95.36-1.46.06-.71-.18-1.4-.66-1.93-.6-.47-1.36-.69-2.12-.62h-.97ZM54.84,224.24h-4.35l-.52,1.11c-.15.28-.23.6-.25.92-.01.3.15.57.42.71.39.13.8.2,1.21.2v.31h-4.09v-.31c.41-.05.79-.22,1.09-.51.44-.52.79-1.1,1.05-1.72l4.4-9.1h.17l4.44,9.35c.25.61.6,1.18,1.04,1.67.25.19.56.29.87.3v.31h-5.95v-.31h.24c.35.03.69-.04,1.01-.19.13-.08.21-.23.2-.39,0-.11-.02-.21-.05-.31-.01-.05-.1-.26-.27-.63l-.66-1.42ZM54.53,223.62l-1.83-3.93-1.89,3.93h3.72ZM69.08,222.29v3.2c-.03.39.01.79.12,1.16.1.17.25.31.43.38.37.12.76.17,1.15.14v.31h-6.3v-.31c.39.03.78-.02,1.16-.15.18-.08.33-.21.43-.38.11-.38.15-.77.13-1.16v-7.4c.03-.39-.01-.79-.12-1.16-.1-.17-.25-.31-.43-.38-.37-.12-.76-.17-1.15-.15v-.31h5.72c1.1-.04,2.19.06,3.27.29.66.17,1.25.54,1.69,1.06.43.5.66,1.14.65,1.8.01.81-.35,1.58-.98,2.09-.52.39-1.11.66-1.75.78l2.96,3.86c.24.34.52.65.83.93.25.18.55.28.86.29v.32h-3.87l-3.96-5.2h-.81ZM69.08,216.69v5h.52c.64.03,1.27-.05,1.89-.22.41-.14.76-.41.98-.77.26-.44.38-.95.36-1.46.06-.71-.18-1.4-.66-1.93-.6-.47-1.36-.69-2.12-.62h-.97ZM84.74,215.92c1.74-.14,3.47.43,4.78,1.59,1.2,1.07,1.87,2.62,1.84,4.23.02,1.4-.47,2.75-1.37,3.82-1.27,1.49-3.17,2.3-5.13,2.19-1.94.11-3.82-.65-5.13-2.09-.95-1.08-1.46-2.47-1.43-3.91-.03-1.62.65-3.17,1.86-4.24,1.25-1.13,2.9-1.71,4.58-1.59h0ZM84.85,216.46c-1.1-.02-2.1.61-2.57,1.6-.54,1.18-.79,2.47-.72,3.77-.12,1.52.27,3.04,1.11,4.32.52.65,1.32,1.02,2.16.98.55.02,1.09-.13,1.56-.42.58-.43,1.02-1.03,1.24-1.72.33-.99.48-2.04.44-3.08.05-1.15-.1-2.29-.45-3.39-.22-.63-.62-1.19-1.16-1.59-.48-.31-1.05-.47-1.62-.46h0ZM97.1,222v3.53c-.03.37,0,.74.1,1.09.09.17.23.3.41.38.26.12.54.18.82.16h.41v.31h-6.43v-.31h.41c.3.01.59-.05.86-.18.16-.09.29-.23.36-.4.09-.35.13-.7.1-1.06v-7.5c.02-.37,0-.74-.1-1.09-.09-.17-.23-.3-.4-.38-.26-.12-.54-.18-.82-.18h-.41v-.31h6.43v.31h-.41c-.3-.01-.59.05-.86.18-.17.09-.3.23-.37.4-.09.35-.13.7-.1,1.06v3.23h4.34v-3.23c.02-.37,0-.74-.1-1.09-.09-.17-.23-.3-.41-.38-.26-.12-.54-.17-.82-.16h-.4v-.31h6.42v.31h-.4c-.3-.01-.59.05-.86.18-.17.09-.3.23-.37.4-.09.35-.13.7-.1,1.06v7.5c-.02.37,0,.74.1,1.09.09.17.23.3.41.38.26.12.54.18.83.16h.4v.32h-6.42v-.31h.4c.3.01.59-.05.86-.18.17-.09.3-.23.37-.4.09-.35.13-.7.1-1.06v-3.54h-4.35ZM114.2,224.24h-4.35l-.52,1.11c-.15.28-.23.6-.25.92-.01.3.15.57.42.71.39.13.8.2,1.21.2v.31h-4.09v-.31c.41-.05.79-.22,1.09-.51.44-.52.79-1.1,1.05-1.72l4.4-9.1h.17l4.43,9.35c.25.62.6,1.18,1.04,1.67.25.19.56.29.87.3v.31h-5.95v-.31h.24c.35.03.69-.04,1-.19.13-.08.21-.23.2-.39,0-.11-.02-.21-.05-.31-.01-.05-.1-.26-.27-.63l-.65-1.42ZM113.89,223.62l-1.83-3.93-1.89,3.93h3.72ZM124.51,216.08l6.07,7.07v-4.9c.05-.49-.06-.97-.32-1.39-.39-.37-.93-.54-1.46-.48v-.31h4.06v.31c-.36.02-.71.1-1.05.24-.19.11-.33.28-.42.48-.12.37-.17.75-.15,1.14v9.5h-.31l-8.32-9.5v7.25c-.06.5.12.99.48,1.33.32.23.71.35,1.11.34h.29v.32h-4.36v-.31c.5.05,1.01-.09,1.41-.39.3-.36.45-.82.4-1.29v-8.05l-.26-.3c-.19-.24-.42-.45-.69-.6-.27-.11-.57-.16-.86-.16v-.31h4.36ZM140.1,227.18v.31h-6.43v-.31h.41c.3.01.59-.05.86-.18.16-.09.29-.23.36-.4.09-.35.13-.7.1-1.06v-7.5c.02-.37,0-.74-.1-1.09-.09-.17-.23-.3-.4-.38-.26-.13-.54-.19-.83-.18h-.41v-.31h6.43v.31h-.41c-.3-.01-.59.05-.86.18-.17.09-.3.23-.37.4-.09.35-.13.7-.1,1.06v7.5c-.03.37,0,.74.1,1.09.09.17.23.3.41.38.26.12.54.18.82.16l.41.02ZM153.74,216.08v.31c-.33.02-.66.14-.93.33-.56.57-1.05,1.22-1.43,1.93l-2.67,4.13v2.76c-.03.37,0,.74.1,1.1.09.16.23.3.4.38.24.12.51.18.78.16h.69v.31h-6.9v-.31h.64c.3.01.59-.05.86-.18.17-.09.3-.23.37-.4.09-.35.13-.7.1-1.06v-2.29l-2.89-4.89c-.32-.62-.73-1.2-1.22-1.7-.28-.19-.61-.28-.95-.27v-.31h5.9v.31h-.27c-.26-.02-.52.03-.75.14-.12.06-.2.17-.21.3.15.55.4,1.06.73,1.52l2.22,3.78,2.21-3.43c.39-.49.67-1.06.83-1.67,0-.16-.09-.3-.24-.38-.35-.18-.74-.27-1.13-.26v-.31h3.76ZM159.97,224.24h-4.34l-.52,1.11c-.15.28-.23.6-.25.92-.01.3.15.57.42.71.39.13.8.2,1.21.2v.31h-4.09v-.31c.41-.05.79-.22,1.09-.51.44-.52.79-1.1,1.05-1.72l4.4-9.1h.17l4.44,9.35c.25.62.6,1.18,1.04,1.67.25.19.56.29.87.3v.31h-5.95v-.31h.24c.35.03.69-.04,1.01-.19.13-.08.21-.23.2-.39,0-.11-.02-.21-.05-.31-.01-.05-.1-.26-.27-.63l-.65-1.42ZM159.66,223.62l-1.84-3.93-1.88,3.93h3.72ZM176,216.08v3.09h-.33c-.12-.55-.34-1.07-.64-1.53-.26-.33-.59-.58-.97-.74-.39-.12-.8-.18-1.21-.15h-.91v8.8c-.03.37,0,.74.1,1.09.09.17.23.3.41.38.26.12.54.18.83.16h.41v.31h-6.44v-.31h.41c.3.01.59-.05.86-.18.17-.09.3-.23.37-.4.09-.35.13-.7.1-1.06v-8.8h-.89c-.64-.06-1.28.12-1.81.49-.56.51-.91,1.2-1,1.94h-.35v-3.09h11.05Z"/>
    </g>
  </g>
</svg>