<?xml version="1.0" encoding="UTF-8"?>
<svg id="Layer_1" xmlns="http://www.w3.org/2000/svg" viewBox="0 0 21.09 21.08">
  <defs>
    <style>
      .cls-1 {
        fill: #c5a84c;
        fill-rule: evenodd;
      }
    </style>
  </defs>
  <polygon class="cls-1" points="10.67 9.51 7.43 4.87 5.7 4.87 9.71 10.61 10.22 11.34 10.22 11.34 13.65 16.25 15.38 16.25 11.17 10.23 10.67 9.51"/>
  <path class="cls-1" d="M20.91,4.58C20.46,1.42,17.97.11,14.94.11c-2.71,0-7.92-.29-10.31.08C1.42.69.11,2.99.11,6.14c0,2.78-.3,7.85.07,10.36.47,3.21,2.86,4.47,5.96,4.47,2.82,0,7.83.29,10.39-.06,3.14-.43,4.44-2.98,4.44-5.97,0-2.75.29-7.89-.06-10.36ZM13.12,17.06l-3.48-5.06-4.35,5.06h-1.13l4.98-5.79-4.98-7.25h3.8l3.29,4.79,4.12-4.79h1.13l-4.75,5.52h0l5.16,7.52h-3.8Z"/>
</svg>